<svg width="384" height="152" viewBox="0 0 384 152" fill="none" xmlns="http://www.w3.org/2000/svg">
<g clip-path="url(#clip0_2521_1622)">
<path d="M200 13.3333H208L204 8L200 13.3333ZM200 18.6667H208L204 24L200 18.6667Z" fill="#C4B5FD"/>
<path d="M177.333 0H185.333V32H177.333C176.98 32 176.641 31.8595 176.391 31.6095C176.14 31.3594 176 31.0203 176 30.6667V1.33333C176 0.979711 176.14 0.640572 176.391 0.390523C176.641 0.140475 176.98 0 177.333 0Z" fill="#7C3AED"/>
<path d="M188 0H196C196.354 0 196.693 0.140475 196.943 0.390523C197.193 0.640572 197.333 0.979711 197.333 1.33333V30.6667C197.333 31.0203 197.193 31.3594 196.943 31.6095C196.693 31.8595 196.354 32 196 32H188V0Z" fill="#1DB5BE"/>
</g>
<path d="M70.1463 87H74.7592V79.2656H78.1257L82.2592 87H87.3516L82.7173 78.5199C85.1996 77.4545 86.5739 75.2919 86.5739 72.3089C86.5739 67.973 83.7081 65.1818 78.7543 65.1818H70.1463V87ZM74.7592 75.5582V68.9531H77.87C80.5334 68.9531 81.8224 70.1357 81.8224 72.3089C81.8224 74.4716 80.5334 75.5582 77.8913 75.5582H74.7592ZM96.8784 87.3196C101.843 87.3196 104.932 83.9212 104.932 78.8821C104.932 73.8111 101.843 70.4233 96.8784 70.4233C91.9139 70.4233 88.8244 73.8111 88.8244 78.8821C88.8244 83.9212 91.9139 87.3196 96.8784 87.3196ZM96.8997 83.804C94.6092 83.804 93.4373 81.7053 93.4373 78.8501C93.4373 75.995 94.6092 73.8857 96.8997 73.8857C99.1476 73.8857 100.319 75.995 100.319 78.8501C100.319 81.7053 99.1476 83.804 96.8997 83.804ZM107.969 87H112.443V84.3793H112.645C113.274 85.7429 114.648 87.2663 117.29 87.2663C121.019 87.2663 123.927 84.3153 123.927 78.8395C123.927 73.2145 120.891 70.4233 117.301 70.4233C114.563 70.4233 113.253 72.0533 112.645 73.3849H112.507V65.1818H107.969V87ZM112.411 78.8182C112.411 75.8991 113.647 74.0348 115.852 74.0348C118.1 74.0348 119.293 75.9844 119.293 78.8182C119.293 81.6733 118.079 83.6548 115.852 83.6548C113.668 83.6548 112.411 81.7372 112.411 78.8182ZM137.449 80.0327C137.46 82.2273 135.958 83.3778 134.328 83.3778C132.613 83.3778 131.505 82.174 131.494 80.2457V70.6364H126.956V81.0554C126.966 84.88 129.203 87.2131 132.495 87.2131C134.956 87.2131 136.725 85.9453 137.46 84.0277H137.63V87H141.988V70.6364H137.449V80.0327ZM159.233 75.3026C158.828 72.2876 156.399 70.4233 152.265 70.4233C148.079 70.4233 145.319 72.3622 145.33 75.5156C145.319 77.9659 146.864 79.5533 150.06 80.1925L152.894 80.7571C154.322 81.0447 154.971 81.5668 154.993 82.3871C154.971 83.3565 153.917 84.049 152.329 84.049C150.71 84.049 149.634 83.3565 149.357 82.0249L144.893 82.2592C145.319 85.3913 147.983 87.3196 152.319 87.3196C156.559 87.3196 159.595 85.157 159.606 81.929C159.595 79.5639 158.05 78.147 154.876 77.4972L151.914 76.9006C150.39 76.5703 149.826 76.0483 149.836 75.2599C149.826 74.2798 150.934 73.6406 152.34 73.6406C153.917 73.6406 154.854 74.5036 155.078 75.5582L159.233 75.3026ZM171.167 70.6364H168.088V66.7159H163.55V70.6364H161.313V74.0455H163.55V82.5682C163.529 85.7749 165.713 87.3622 169.005 87.2237C170.176 87.1811 171.007 86.9467 171.466 86.7976L170.752 83.4205C170.528 83.4631 170.049 83.5696 169.623 83.5696C168.717 83.5696 168.088 83.2287 168.088 81.9716V74.0455H171.167V70.6364ZM184.295 87H189.089L191.901 76.7088H192.104L194.916 87H199.721L204.164 70.6364H199.583L197.09 81.5668H196.951L194.267 70.6364H189.76L187.118 81.6307H186.969L184.433 70.6364H179.842L184.295 87ZM213.568 87.3196C218.532 87.3196 221.622 83.9212 221.622 78.8821C221.622 73.8111 218.532 70.4233 213.568 70.4233C208.603 70.4233 205.514 73.8111 205.514 78.8821C205.514 83.9212 208.603 87.3196 213.568 87.3196ZM213.589 83.804C211.299 83.804 210.127 81.7053 210.127 78.8501C210.127 75.995 211.299 73.8857 213.589 73.8857C215.837 73.8857 217.009 75.995 217.009 78.8501C217.009 81.7053 215.837 83.804 213.589 83.804ZM224.573 87H229.111V77.7422C229.111 75.7287 230.581 74.3438 232.584 74.3438C233.213 74.3438 234.076 74.4503 234.502 74.5888V70.5618C234.097 70.4659 233.532 70.402 233.074 70.402C231.242 70.402 229.74 71.4673 229.143 73.4915H228.973V70.6364H224.573V87ZM236.848 87H241.387V81.8011L242.612 80.4055L247.075 87H252.392L246.01 77.7209L252.083 70.6364H246.873L241.632 76.8473H241.387V65.1818H236.848V87ZM263.109 70.6364H259.86V69.5391C259.86 68.4311 260.307 67.7812 261.639 67.7812C262.182 67.7812 262.736 67.8984 263.098 68.0156L263.897 64.6065C263.333 64.4361 262.086 64.1591 260.691 64.1591C257.612 64.1591 255.321 65.8956 255.321 69.4538V70.6364H253.009V74.0455H255.321V87H259.86V74.0455H263.109V70.6364ZM270.42 65.1818H265.881V87H270.42V65.1818ZM281.449 87.3196C286.413 87.3196 289.503 83.9212 289.503 78.8821C289.503 73.8111 286.413 70.4233 281.449 70.4233C276.484 70.4233 273.395 73.8111 273.395 78.8821C273.395 83.9212 276.484 87.3196 281.449 87.3196ZM281.47 83.804C279.18 83.804 278.008 81.7053 278.008 78.8501C278.008 75.995 279.18 73.8857 281.47 73.8857C283.718 73.8857 284.89 75.995 284.89 78.8501C284.89 81.7053 283.718 83.804 281.47 83.804ZM295.271 87H300.066L302.878 76.7088H303.08L305.893 87H310.698L315.14 70.6364H310.559L308.066 81.5668H307.928L305.243 70.6364H300.737L298.095 81.6307H297.945L295.41 70.6364H290.818L295.271 87Z" fill="#111827"/>
<path d="M40.9638 122H47.782V120.75H42.3729V110.364H40.9638V122ZM53.3274 122.182C55.6911 122.182 57.282 120.386 57.282 117.682C57.282 114.955 55.6911 113.159 53.3274 113.159C50.9638 113.159 49.3729 114.955 49.3729 117.682C49.3729 120.386 50.9638 122.182 53.3274 122.182ZM53.3274 120.977C51.532 120.977 50.7138 119.432 50.7138 117.682C50.7138 115.932 51.532 114.364 53.3274 114.364C55.1229 114.364 55.9411 115.932 55.9411 117.682C55.9411 119.432 55.1229 120.977 53.3274 120.977ZM59.3288 122H60.6697V116.477C60.6697 115.295 61.6016 114.432 62.8743 114.432C63.2322 114.432 63.6016 114.5 63.6925 114.523V113.159C63.5391 113.148 63.1868 113.136 62.9879 113.136C61.9425 113.136 61.0334 113.727 60.7152 114.591H60.6243V113.273H59.3288V122ZM68.6754 122.182C70.4482 122.182 71.7436 121.295 72.1527 119.977L70.8572 119.614C70.5163 120.523 69.7266 120.977 68.6754 120.977C67.1016 120.977 66.0163 119.96 65.9538 118.091H72.2891V117.523C72.2891 114.273 70.3572 113.159 68.5391 113.159C66.1754 113.159 64.6072 115.023 64.6072 117.705C64.6072 120.386 66.1527 122.182 68.6754 122.182ZM65.9538 116.932C66.0447 115.574 67.005 114.364 68.5391 114.364C69.9936 114.364 70.9254 115.455 70.9254 116.932H65.9538ZM74.3288 122H75.6697V116.545C75.6697 115.267 76.6016 114.364 77.647 114.364C78.6641 114.364 79.3743 115.028 79.3743 116.023V122H80.7379V116.318C80.7379 115.193 81.4425 114.364 82.6697 114.364C83.6243 114.364 84.4425 114.869 84.4425 116.159V122H85.7834V116.159C85.7834 114.108 84.6811 113.159 83.1243 113.159C81.8743 113.159 80.9595 113.733 80.5107 114.636H80.4197C79.9879 113.705 79.2266 113.159 78.0788 113.159C76.9425 113.159 76.1016 113.705 75.7379 114.636H75.6243V113.273H74.3288V122ZM92.7351 122H94.076V113.273H92.7351V122ZM93.4169 111.818C93.9396 111.818 94.3714 111.409 94.3714 110.909C94.3714 110.409 93.9396 110 93.4169 110C92.8942 110 92.4624 110.409 92.4624 110.909C92.4624 111.409 92.8942 111.818 93.4169 111.818ZM96.532 125.273H97.8729V120.659H97.9865C98.282 121.136 98.8501 122.182 100.532 122.182C102.714 122.182 104.237 120.432 104.237 117.659C104.237 114.909 102.714 113.159 100.509 113.159C98.8047 113.159 98.282 114.205 97.9865 114.659H97.8274V113.273H96.532V125.273ZM97.8501 117.636C97.8501 115.682 98.7138 114.364 100.35 114.364C102.055 114.364 102.896 115.795 102.896 117.636C102.896 119.5 102.032 120.977 100.35 120.977C98.7365 120.977 97.8501 119.614 97.8501 117.636ZM112.464 115.227C112.043 113.989 111.1 113.159 109.373 113.159C107.532 113.159 106.168 114.205 106.168 115.682C106.168 116.886 106.884 117.693 108.487 118.068L109.941 118.409C110.822 118.614 111.237 119.034 111.237 119.636C111.237 120.386 110.441 121 109.191 121C108.094 121 107.407 120.528 107.168 119.591L105.896 119.909C106.208 121.392 107.43 122.182 109.214 122.182C111.242 122.182 112.623 121.074 112.623 119.568C112.623 118.352 111.862 117.585 110.305 117.205L109.009 116.886C107.975 116.631 107.509 116.284 107.509 115.614C107.509 114.864 108.305 114.318 109.373 114.318C110.543 114.318 111.026 114.966 111.259 115.568L112.464 115.227ZM120.141 118.432C120.141 120.068 118.891 120.818 117.891 120.818C116.778 120.818 115.982 120 115.982 118.727V113.273H114.641V118.818C114.641 121.045 115.823 122.114 117.46 122.114C118.778 122.114 119.641 121.409 120.05 120.523H120.141V122H121.482V113.273H120.141V118.432ZM123.938 122H125.279V116.545C125.279 115.267 126.211 114.364 127.256 114.364C128.273 114.364 128.984 115.028 128.984 116.023V122H130.347V116.318C130.347 115.193 131.052 114.364 132.279 114.364C133.234 114.364 134.052 114.869 134.052 116.159V122H135.393V116.159C135.393 114.108 134.29 113.159 132.734 113.159C131.484 113.159 130.569 113.733 130.12 114.636H130.029C129.597 113.705 128.836 113.159 127.688 113.159C126.552 113.159 125.711 113.705 125.347 114.636H125.234V113.273H123.938V122ZM145.64 122.182C147.322 122.182 147.89 121.136 148.185 120.659H148.344V122H149.64V110.364H148.299V114.659H148.185C147.89 114.205 147.367 113.159 145.663 113.159C143.458 113.159 141.935 114.909 141.935 117.659C141.935 120.432 143.458 122.182 145.64 122.182ZM145.822 120.977C144.14 120.977 143.276 119.5 143.276 117.636C143.276 115.795 144.117 114.364 145.822 114.364C147.458 114.364 148.322 115.682 148.322 117.636C148.322 119.614 147.435 120.977 145.822 120.977ZM155.827 122.182C158.191 122.182 159.782 120.386 159.782 117.682C159.782 114.955 158.191 113.159 155.827 113.159C153.464 113.159 151.873 114.955 151.873 117.682C151.873 120.386 153.464 122.182 155.827 122.182ZM155.827 120.977C154.032 120.977 153.214 119.432 153.214 117.682C153.214 115.932 154.032 114.364 155.827 114.364C157.623 114.364 158.441 115.932 158.441 117.682C158.441 119.432 157.623 120.977 155.827 120.977ZM163.17 110.364H161.829V122H163.17V110.364ZM169.171 122.182C171.535 122.182 173.126 120.386 173.126 117.682C173.126 114.955 171.535 113.159 169.171 113.159C166.808 113.159 165.217 114.955 165.217 117.682C165.217 120.386 166.808 122.182 169.171 122.182ZM169.171 120.977C167.376 120.977 166.558 119.432 166.558 117.682C166.558 115.932 167.376 114.364 169.171 114.364C170.967 114.364 171.785 115.932 171.785 117.682C171.785 119.432 170.967 120.977 169.171 120.977ZM175.173 122H176.513V116.477C176.513 115.295 177.445 114.432 178.718 114.432C179.076 114.432 179.445 114.5 179.536 114.523V113.159C179.383 113.148 179.031 113.136 178.832 113.136C177.786 113.136 176.877 113.727 176.559 114.591H176.468V113.273H175.173V122ZM191.808 115.227C191.387 113.989 190.444 113.159 188.717 113.159C186.876 113.159 185.512 114.205 185.512 115.682C185.512 116.886 186.228 117.693 187.83 118.068L189.285 118.409C190.165 118.614 190.58 119.034 190.58 119.636C190.58 120.386 189.785 121 188.535 121C187.438 121 186.751 120.528 186.512 119.591L185.239 119.909C185.552 121.392 186.773 122.182 188.558 122.182C190.586 122.182 191.967 121.074 191.967 119.568C191.967 118.352 191.205 117.585 189.648 117.205L188.353 116.886C187.319 116.631 186.853 116.284 186.853 115.614C186.853 114.864 187.648 114.318 188.717 114.318C189.887 114.318 190.37 114.966 190.603 115.568L191.808 115.227ZM193.985 122H195.326V113.273H193.985V122ZM194.667 111.818C195.19 111.818 195.621 111.409 195.621 110.909C195.621 110.409 195.19 110 194.667 110C194.144 110 193.712 110.409 193.712 110.909C193.712 111.409 194.144 111.818 194.667 111.818ZM201.577 113.273H199.714V111.182H198.373V113.273H197.055V114.409H198.373V119.864C198.373 121.386 199.6 122.114 200.737 122.114C201.237 122.114 201.555 122.023 201.737 121.955L201.464 120.75C201.35 120.773 201.168 120.818 200.873 120.818C200.282 120.818 199.714 120.636 199.714 119.5V114.409H201.577V113.273ZM210.663 122.205C212.185 122.205 212.981 121.386 213.254 120.818H213.322V122H214.663V116.25C214.663 113.477 212.549 113.159 211.435 113.159C210.117 113.159 208.617 113.614 207.935 115.205L209.208 115.659C209.504 115.023 210.202 114.341 211.481 114.341C212.714 114.341 213.322 114.994 213.322 116.114V116.159C213.322 116.807 212.663 116.75 211.072 116.955C209.452 117.165 207.685 117.523 207.685 119.523C207.685 121.227 209.004 122.205 210.663 122.205ZM210.867 121C209.799 121 209.026 120.523 209.026 119.591C209.026 118.568 209.958 118.25 211.004 118.114C211.572 118.045 213.094 117.886 213.322 117.614V118.841C213.322 119.932 212.458 121 210.867 121ZM217.11 122H218.451V116.545C218.451 115.267 219.383 114.364 220.428 114.364C221.445 114.364 222.156 115.028 222.156 116.023V122H223.519V116.318C223.519 115.193 224.224 114.364 225.451 114.364C226.406 114.364 227.224 114.869 227.224 116.159V122H228.565V116.159C228.565 114.108 227.462 113.159 225.906 113.159C224.656 113.159 223.741 113.733 223.292 114.636H223.201C222.769 113.705 222.008 113.159 220.86 113.159C219.724 113.159 218.883 113.705 218.519 114.636H218.406V113.273H217.11V122ZM234.675 122.182C236.448 122.182 237.744 121.295 238.153 119.977L236.857 119.614C236.516 120.523 235.727 120.977 234.675 120.977C233.102 120.977 232.016 119.96 231.954 118.091H238.289V117.523C238.289 114.273 236.357 113.159 234.539 113.159C232.175 113.159 230.607 115.023 230.607 117.705C230.607 120.386 232.153 122.182 234.675 122.182ZM231.954 116.932C232.045 115.574 233.005 114.364 234.539 114.364C235.994 114.364 236.925 115.455 236.925 116.932H231.954ZM244.124 113.273H242.261V111.182H240.92V113.273H239.602V114.409H240.92V119.864C240.92 121.386 242.147 122.114 243.283 122.114C243.783 122.114 244.102 122.023 244.283 121.955L244.011 120.75C243.897 120.773 243.715 120.818 243.42 120.818C242.829 120.818 242.261 120.636 242.261 119.5V114.409H244.124V113.273ZM248.141 120.409H246.687L246.619 121.045C246.454 122.585 246.13 124.119 245.982 124.841H247.005C247.278 124.068 247.857 122.318 248.05 121.023L248.141 120.409ZM258.671 122.182C260.603 122.182 261.876 121 262.103 119.455H260.762C260.512 120.409 259.717 120.977 258.671 120.977C257.08 120.977 256.058 119.659 256.058 117.636C256.058 115.659 257.103 114.364 258.671 114.364C259.853 114.364 260.558 115.091 260.762 115.886H262.103C261.876 114.25 260.489 113.159 258.648 113.159C256.285 113.159 254.717 115.023 254.717 117.682C254.717 120.295 256.217 122.182 258.671 122.182ZM267.609 122.182C269.972 122.182 271.563 120.386 271.563 117.682C271.563 114.955 269.972 113.159 267.609 113.159C265.245 113.159 263.654 114.955 263.654 117.682C263.654 120.386 265.245 122.182 267.609 122.182ZM267.609 120.977C265.813 120.977 264.995 119.432 264.995 117.682C264.995 115.932 265.813 114.364 267.609 114.364C269.404 114.364 270.222 115.932 270.222 117.682C270.222 119.432 269.404 120.977 267.609 120.977ZM274.951 116.75C274.951 115.227 275.894 114.364 277.178 114.364C278.423 114.364 279.178 115.176 279.178 116.545V122H280.519V116.455C280.519 114.227 279.332 113.159 277.565 113.159C276.246 113.159 275.428 113.75 275.019 114.636H274.906V113.273H273.61V122H274.951V116.75ZM289.151 115.227C288.731 113.989 287.788 113.159 286.06 113.159C284.219 113.159 282.856 114.205 282.856 115.682C282.856 116.886 283.572 117.693 285.174 118.068L286.629 118.409C287.509 118.614 287.924 119.034 287.924 119.636C287.924 120.386 287.129 121 285.879 121C284.782 121 284.094 120.528 283.856 119.591L282.583 119.909C282.896 121.392 284.117 122.182 285.901 122.182C287.93 122.182 289.31 121.074 289.31 119.568C289.31 118.352 288.549 117.585 286.992 117.205L285.697 116.886C284.663 116.631 284.197 116.284 284.197 115.614C284.197 114.864 284.992 114.318 286.06 114.318C287.231 114.318 287.714 114.966 287.947 115.568L289.151 115.227ZM294.988 122.182C296.761 122.182 298.056 121.295 298.465 119.977L297.17 119.614C296.829 120.523 296.039 120.977 294.988 120.977C293.414 120.977 292.329 119.96 292.266 118.091H298.602V117.523C298.602 114.273 296.67 113.159 294.852 113.159C292.488 113.159 290.92 115.023 290.92 117.705C290.92 120.386 292.465 122.182 294.988 122.182ZM292.266 116.932C292.357 115.574 293.317 114.364 294.852 114.364C296.306 114.364 297.238 115.455 297.238 116.932H292.266ZM304.187 122.182C306.119 122.182 307.391 121 307.619 119.455H306.278C306.028 120.409 305.232 120.977 304.187 120.977C302.596 120.977 301.573 119.659 301.573 117.636C301.573 115.659 302.619 114.364 304.187 114.364C305.369 114.364 306.073 115.091 306.278 115.886H307.619C307.391 114.25 306.005 113.159 304.164 113.159C301.8 113.159 300.232 115.023 300.232 117.682C300.232 120.295 301.732 122.182 304.187 122.182ZM313.374 113.273H311.511V111.182H310.17V113.273H308.852V114.409H310.17V119.864C310.17 121.386 311.397 122.114 312.533 122.114C313.033 122.114 313.352 122.023 313.533 121.955L313.261 120.75C313.147 120.773 312.965 120.818 312.67 120.818C312.079 120.818 311.511 120.636 311.511 119.5V114.409H313.374V113.273ZM318.957 122.182C320.729 122.182 322.025 121.295 322.434 119.977L321.138 119.614C320.798 120.523 320.008 120.977 318.957 120.977C317.383 120.977 316.298 119.96 316.235 118.091H322.57V117.523C322.57 114.273 320.638 113.159 318.82 113.159C316.457 113.159 314.888 115.023 314.888 117.705C314.888 120.386 316.434 122.182 318.957 122.182ZM316.235 116.932C316.326 115.574 317.286 114.364 318.82 114.364C320.275 114.364 321.207 115.455 321.207 116.932H316.235ZM328.406 113.273H326.542V111.182H325.201V113.273H323.883V114.409H325.201V119.864C325.201 121.386 326.428 122.114 327.565 122.114C328.065 122.114 328.383 122.023 328.565 121.955L328.292 120.75C328.178 120.773 327.996 120.818 327.701 120.818C327.11 120.818 326.542 120.636 326.542 119.5V114.409H328.406V113.273ZM335.923 118.432C335.923 120.068 334.673 120.818 333.673 120.818C332.559 120.818 331.763 120 331.763 118.727V113.273H330.423V118.818C330.423 121.045 331.604 122.114 333.241 122.114C334.559 122.114 335.423 121.409 335.832 120.523H335.923V122H337.263V113.273H335.923V118.432ZM339.719 122H341.06V116.477C341.06 115.295 341.992 114.432 343.265 114.432C343.623 114.432 343.992 114.5 344.083 114.523V113.159C343.93 113.148 343.577 113.136 343.379 113.136C342.333 113.136 341.424 113.727 341.106 114.591H341.015V113.273H339.719V122ZM28.733 146.205C30.2557 146.205 31.0511 145.386 31.3239 144.818H31.392V146H32.733V140.25C32.733 137.477 30.6193 137.159 29.5057 137.159C28.1875 137.159 26.6875 137.614 26.0057 139.205L27.2784 139.659C27.5739 139.023 28.2727 138.341 29.5511 138.341C30.7841 138.341 31.392 138.994 31.392 140.114V140.159C31.392 140.807 30.733 140.75 29.142 140.955C27.5227 141.165 25.7557 141.523 25.7557 143.523C25.7557 145.227 27.0739 146.205 28.733 146.205ZM28.9375 145C27.8693 145 27.0966 144.523 27.0966 143.591C27.0966 142.568 28.0284 142.25 29.0739 142.114C29.642 142.045 31.1648 141.886 31.392 141.614V142.841C31.392 143.932 30.5284 145 28.9375 145ZM38.4759 146.182C40.1577 146.182 40.7259 145.136 41.0213 144.659H41.1804V146H42.4759V134.364H41.1349V138.659H41.0213C40.7259 138.205 40.2031 137.159 38.4986 137.159C36.294 137.159 34.7713 138.909 34.7713 141.659C34.7713 144.432 36.294 146.182 38.4759 146.182ZM38.6577 144.977C36.9759 144.977 36.1122 143.5 36.1122 141.636C36.1122 139.795 36.9531 138.364 38.6577 138.364C40.294 138.364 41.1577 139.682 41.1577 141.636C41.1577 143.614 40.2713 144.977 38.6577 144.977ZM45.1179 146H46.4588V137.273H45.1179V146ZM45.7997 135.818C46.3224 135.818 46.7543 135.409 46.7543 134.909C46.7543 134.409 46.3224 134 45.7997 134C45.277 134 44.8452 134.409 44.8452 134.909C44.8452 135.409 45.277 135.818 45.7997 135.818ZM48.9148 149.273H50.2557V144.659H50.3693C50.6648 145.136 51.233 146.182 52.9148 146.182C55.0966 146.182 56.6193 144.432 56.6193 141.659C56.6193 138.909 55.0966 137.159 52.892 137.159C51.1875 137.159 50.6648 138.205 50.3693 138.659H50.2102V137.273H48.9148V149.273ZM50.233 141.636C50.233 139.682 51.0966 138.364 52.733 138.364C54.4375 138.364 55.2784 139.795 55.2784 141.636C55.2784 143.5 54.4148 144.977 52.733 144.977C51.1193 144.977 50.233 143.614 50.233 141.636ZM58.6648 146H60.0057V137.273H58.6648V146ZM59.3466 135.818C59.8693 135.818 60.3011 135.409 60.3011 134.909C60.3011 134.409 59.8693 134 59.3466 134C58.8239 134 58.392 134.409 58.392 134.909C58.392 135.409 58.8239 135.818 59.3466 135.818ZM68.6435 139.227C68.223 137.989 67.2798 137.159 65.5526 137.159C63.7116 137.159 62.348 138.205 62.348 139.682C62.348 140.886 63.0639 141.693 64.6662 142.068L66.1207 142.409C67.0014 142.614 67.4162 143.034 67.4162 143.636C67.4162 144.386 66.6207 145 65.3707 145C64.2741 145 63.5866 144.528 63.348 143.591L62.0753 143.909C62.3878 145.392 63.6094 146.182 65.3935 146.182C67.4219 146.182 68.8026 145.074 68.8026 143.568C68.8026 142.352 68.0412 141.585 66.4844 141.205L65.1889 140.886C64.1548 140.631 63.6889 140.284 63.6889 139.614C63.6889 138.864 64.4844 138.318 65.5526 138.318C66.723 138.318 67.206 138.966 67.4389 139.568L68.6435 139.227ZM74.3665 146.182C76.2983 146.182 77.571 145 77.7983 143.455H76.4574C76.2074 144.409 75.4119 144.977 74.3665 144.977C72.7756 144.977 71.7528 143.659 71.7528 141.636C71.7528 139.659 72.7983 138.364 74.3665 138.364C75.5483 138.364 76.2528 139.091 76.4574 139.886H77.7983C77.571 138.25 76.1847 137.159 74.3438 137.159C71.9801 137.159 70.4119 139.023 70.4119 141.682C70.4119 144.295 71.9119 146.182 74.3665 146.182ZM79.7585 146H81.0994V137.273H79.7585V146ZM80.4403 135.818C80.9631 135.818 81.3949 135.409 81.3949 134.909C81.3949 134.409 80.9631 134 80.4403 134C79.9176 134 79.4858 134.409 79.4858 134.909C79.4858 135.409 79.9176 135.818 80.4403 135.818ZM84.8963 140.75C84.8963 139.227 85.8395 138.364 87.1236 138.364C88.3679 138.364 89.1236 139.176 89.1236 140.545V146H90.4645V140.455C90.4645 138.227 89.277 137.159 87.5099 137.159C86.1918 137.159 85.3736 137.75 84.9645 138.636H84.8509V137.273H83.5554V146H84.8963V140.75ZM96.4375 149.455C98.5284 149.455 100.21 148.5 100.21 146.25V137.273H98.9148V138.659H98.7784C98.483 138.205 97.9375 137.159 96.233 137.159C94.0284 137.159 92.5057 138.909 92.5057 141.591C92.5057 144.318 94.0966 145.864 96.2102 145.864C97.9148 145.864 98.4602 144.864 98.7557 144.386H98.8693V146.159C98.8693 147.614 97.8466 148.273 96.4375 148.273C94.8523 148.273 94.2955 147.438 93.9375 146.955L92.8693 147.705C93.4148 148.619 94.4886 149.455 96.4375 149.455ZM96.392 144.659C94.7102 144.659 93.8466 143.386 93.8466 141.568C93.8466 139.795 94.6875 138.364 96.392 138.364C98.0284 138.364 98.892 139.682 98.892 141.568C98.892 143.5 98.0057 144.659 96.392 144.659ZM110.824 146.182C112.597 146.182 113.892 145.295 114.301 143.977L113.006 143.614C112.665 144.523 111.875 144.977 110.824 144.977C109.25 144.977 108.165 143.96 108.102 142.091H114.438V141.523C114.438 138.273 112.506 137.159 110.688 137.159C108.324 137.159 106.756 139.023 106.756 141.705C106.756 144.386 108.301 146.182 110.824 146.182ZM108.102 140.932C108.193 139.574 109.153 138.364 110.688 138.364C112.142 138.364 113.074 139.455 113.074 140.932H108.102ZM117.818 134.364H116.477V146H117.818V134.364ZM120.274 146H121.615V137.273H120.274V146ZM120.956 135.818C121.479 135.818 121.911 135.409 121.911 134.909C121.911 134.409 121.479 134 120.956 134C120.433 134 120.001 134.409 120.001 134.909C120.001 135.409 120.433 135.818 120.956 135.818ZM127.866 137.273H126.003V135.182H124.662V137.273H123.344V138.409H124.662V143.864C124.662 145.386 125.889 146.114 127.026 146.114C127.526 146.114 127.844 146.023 128.026 145.955L127.753 144.75C127.639 144.773 127.457 144.818 127.162 144.818C126.571 144.818 126.003 144.636 126.003 143.5V138.409H127.866V137.273ZM130.861 146.091C131.423 146.091 131.884 145.631 131.884 145.068C131.884 144.506 131.423 144.045 130.861 144.045C130.298 144.045 129.838 144.506 129.838 145.068C129.838 145.631 130.298 146.091 130.861 146.091ZM145.335 137.273H146.699C146.636 135.517 145.017 134.205 142.767 134.205C140.54 134.205 138.79 135.5 138.79 137.455C138.79 139.023 139.926 139.955 141.744 140.477L143.176 140.886C144.403 141.227 145.494 141.659 145.494 142.818C145.494 144.091 144.267 144.932 142.653 144.932C141.267 144.932 140.04 144.318 139.926 143H138.472C138.608 144.909 140.153 146.205 142.653 146.205C145.335 146.205 146.858 144.727 146.858 142.841C146.858 140.659 144.79 139.955 143.585 139.636L142.403 139.318C141.54 139.091 140.153 138.636 140.153 137.386C140.153 136.273 141.176 135.455 142.722 135.455C144.131 135.455 145.199 136.125 145.335 137.273ZM152.652 146.182C154.425 146.182 155.72 145.295 156.129 143.977L154.834 143.614C154.493 144.523 153.703 144.977 152.652 144.977C151.078 144.977 149.993 143.96 149.93 142.091H156.266V141.523C156.266 138.273 154.334 137.159 152.516 137.159C150.152 137.159 148.584 139.023 148.584 141.705C148.584 144.386 150.129 146.182 152.652 146.182ZM149.93 140.932C150.021 139.574 150.982 138.364 152.516 138.364C153.97 138.364 154.902 139.455 154.902 140.932H149.93ZM161.601 146.182C163.283 146.182 163.851 145.136 164.146 144.659H164.305V146H165.601V134.364H164.26V138.659H164.146C163.851 138.205 163.328 137.159 161.624 137.159C159.419 137.159 157.896 138.909 157.896 141.659C157.896 144.432 159.419 146.182 161.601 146.182ZM161.783 144.977C160.101 144.977 159.237 143.5 159.237 141.636C159.237 139.795 160.078 138.364 161.783 138.364C163.419 138.364 164.283 139.682 164.283 141.636C164.283 143.614 163.396 144.977 161.783 144.977ZM176.402 146.182C178.175 146.182 179.47 145.295 179.879 143.977L178.584 143.614C178.243 144.523 177.453 144.977 176.402 144.977C174.828 144.977 173.743 143.96 173.68 142.091H180.016V141.523C180.016 138.273 178.084 137.159 176.266 137.159C173.902 137.159 172.334 139.023 172.334 141.705C172.334 144.386 173.879 146.182 176.402 146.182ZM173.68 140.932C173.771 139.574 174.732 138.364 176.266 138.364C177.72 138.364 178.652 139.455 178.652 140.932H173.68ZM182.055 146H183.396V140.477C183.396 139.295 184.328 138.432 185.601 138.432C185.959 138.432 186.328 138.5 186.419 138.523V137.159C186.266 137.148 185.913 137.136 185.714 137.136C184.669 137.136 183.76 137.727 183.442 138.591H183.351V137.273H182.055V146ZM190.577 146.205C192.099 146.205 192.895 145.386 193.168 144.818H193.236V146H194.577V140.25C194.577 137.477 192.463 137.159 191.349 137.159C190.031 137.159 188.531 137.614 187.849 139.205L189.122 139.659C189.418 139.023 190.116 138.341 191.395 138.341C192.628 138.341 193.236 138.994 193.236 140.114V140.159C193.236 140.807 192.577 140.75 190.986 140.955C189.366 141.165 187.599 141.523 187.599 143.523C187.599 145.227 188.918 146.205 190.577 146.205ZM190.781 145C189.713 145 188.94 144.523 188.94 143.591C188.94 142.568 189.872 142.25 190.918 142.114C191.486 142.045 193.009 141.886 193.236 141.614V142.841C193.236 143.932 192.372 145 190.781 145ZM200.82 137.273H198.956V135.182H197.615V137.273H196.297V138.409H197.615V143.864C197.615 145.386 198.842 146.114 199.979 146.114C200.479 146.114 200.797 146.023 200.979 145.955L200.706 144.75C200.592 144.773 200.411 144.818 200.115 144.818C199.524 144.818 198.956 144.636 198.956 143.5V138.409H200.82V137.273ZM208.678 140.75C208.678 139.227 209.621 138.364 210.905 138.364C212.149 138.364 212.905 139.176 212.905 140.545V146H214.246V140.455C214.246 138.227 213.058 137.159 211.291 137.159C209.973 137.159 209.155 137.75 208.746 138.636H208.632V137.273H207.337V146H208.678V140.75ZM216.696 146H218.037V137.273H216.696V146ZM217.378 135.818C217.901 135.818 218.332 135.409 218.332 134.909C218.332 134.409 217.901 134 217.378 134C216.855 134 216.423 134.409 216.423 134.909C216.423 135.409 216.855 135.818 217.378 135.818ZM220.675 146H221.97V144.659H222.129C222.425 145.136 222.993 146.182 224.675 146.182C226.857 146.182 228.379 144.432 228.379 141.659C228.379 138.909 226.857 137.159 224.652 137.159C222.947 137.159 222.425 138.205 222.129 138.659H222.016V134.364H220.675V146ZM221.993 141.636C221.993 139.682 222.857 138.364 224.493 138.364C226.197 138.364 227.038 139.795 227.038 141.636C227.038 143.5 226.175 144.977 224.493 144.977C222.879 144.977 221.993 143.614 221.993 141.636ZM231.771 140.75C231.771 139.227 232.743 138.364 234.067 138.364C235.328 138.364 236.089 139.159 236.089 140.545V146H237.43V140.455C237.43 138.21 236.237 137.159 234.453 137.159C233.078 137.159 232.294 137.733 231.885 138.636H231.771V134.364H230.43V146H231.771V140.75ZM248.179 137.273H246.315V135.182H244.974V137.273H243.656V138.409H244.974V143.864C244.974 145.386 246.202 146.114 247.338 146.114C247.838 146.114 248.156 146.023 248.338 145.955L248.065 144.75C247.952 144.773 247.77 144.818 247.474 144.818C246.884 144.818 246.315 144.636 246.315 143.5V138.409H248.179V137.273ZM250.196 146H251.537V140.477C251.537 139.295 252.469 138.432 253.741 138.432C254.099 138.432 254.469 138.5 254.56 138.523V137.159C254.406 137.148 254.054 137.136 253.855 137.136C252.81 137.136 251.901 137.727 251.582 138.591H251.491V137.273H250.196V146ZM256.149 146H257.49V137.273H256.149V146ZM256.831 135.818C257.354 135.818 257.786 135.409 257.786 134.909C257.786 134.409 257.354 134 256.831 134C256.308 134 255.876 134.409 255.876 134.909C255.876 135.409 256.308 135.818 256.831 135.818ZM266.128 139.227C265.707 137.989 264.764 137.159 263.037 137.159C261.196 137.159 259.832 138.205 259.832 139.682C259.832 140.886 260.548 141.693 262.151 142.068L263.605 142.409C264.486 142.614 264.901 143.034 264.901 143.636C264.901 144.386 264.105 145 262.855 145C261.759 145 261.071 144.528 260.832 143.591L259.56 143.909C259.872 145.392 261.094 146.182 262.878 146.182C264.906 146.182 266.287 145.074 266.287 143.568C266.287 142.352 265.526 141.585 263.969 141.205L262.673 140.886C261.639 140.631 261.173 140.284 261.173 139.614C261.173 138.864 261.969 138.318 263.037 138.318C264.207 138.318 264.69 138.966 264.923 139.568L266.128 139.227ZM272.101 137.273H270.237V135.182H268.896V137.273H267.578V138.409H268.896V143.864C268.896 145.386 270.124 146.114 271.26 146.114C271.76 146.114 272.078 146.023 272.26 145.955L271.987 144.75C271.874 144.773 271.692 144.818 271.396 144.818C270.805 144.818 270.237 144.636 270.237 143.5V138.409H272.101V137.273ZM274.118 146H275.459V137.273H274.118V146ZM274.8 135.818C275.322 135.818 275.754 135.409 275.754 134.909C275.754 134.409 275.322 134 274.8 134C274.277 134 273.845 134.409 273.845 134.909C273.845 135.409 274.277 135.818 274.8 135.818ZM285.21 149.273V137.273H283.915V138.659H283.756C283.46 138.205 282.938 137.159 281.233 137.159C279.028 137.159 277.506 138.909 277.506 141.659C277.506 144.432 279.028 146.182 281.21 146.182C282.892 146.182 283.46 145.136 283.756 144.659H283.869V149.273H285.21ZM283.892 141.636C283.892 143.614 283.006 144.977 281.392 144.977C279.71 144.977 278.847 143.5 278.847 141.636C278.847 139.795 279.688 138.364 281.392 138.364C283.028 138.364 283.892 139.682 283.892 141.636ZM293.165 142.432C293.165 144.068 291.915 144.818 290.915 144.818C289.801 144.818 289.006 144 289.006 142.727V137.273H287.665V142.818C287.665 145.045 288.847 146.114 290.483 146.114C291.801 146.114 292.665 145.409 293.074 144.523H293.165V146H294.506V137.273H293.165V142.432ZM300.621 146.182C302.393 146.182 303.689 145.295 304.098 143.977L302.803 143.614C302.462 144.523 301.672 144.977 300.621 144.977C299.047 144.977 297.962 143.96 297.899 142.091H304.234V141.523C304.234 138.273 302.303 137.159 300.484 137.159C298.121 137.159 296.553 139.023 296.553 141.705C296.553 144.386 298.098 146.182 300.621 146.182ZM297.899 140.932C297.99 139.574 298.95 138.364 300.484 138.364C301.939 138.364 302.871 139.455 302.871 140.932H297.899ZM310.774 146H312.115V137.273H310.774V146ZM311.456 135.818C311.979 135.818 312.411 135.409 312.411 134.909C312.411 134.409 311.979 134 311.456 134C310.933 134 310.501 134.409 310.501 134.909C310.501 135.409 310.933 135.818 311.456 135.818ZM314.571 149.273H315.912V144.659H316.026C316.321 145.136 316.889 146.182 318.571 146.182C320.753 146.182 322.276 144.432 322.276 141.659C322.276 138.909 320.753 137.159 318.548 137.159C316.844 137.159 316.321 138.205 316.026 138.659H315.866V137.273H314.571V149.273ZM315.889 141.636C315.889 139.682 316.753 138.364 318.389 138.364C320.094 138.364 320.935 139.795 320.935 141.636C320.935 143.5 320.071 144.977 318.389 144.977C316.776 144.977 315.889 143.614 315.889 141.636ZM330.503 139.227C330.082 137.989 329.139 137.159 327.412 137.159C325.571 137.159 324.207 138.205 324.207 139.682C324.207 140.886 324.923 141.693 326.526 142.068L327.98 142.409C328.861 142.614 329.276 143.034 329.276 143.636C329.276 144.386 328.48 145 327.23 145C326.134 145 325.446 144.528 325.207 143.591L323.935 143.909C324.247 145.392 325.469 146.182 327.253 146.182C329.281 146.182 330.662 145.074 330.662 143.568C330.662 142.352 329.901 141.585 328.344 141.205L327.048 140.886C326.014 140.631 325.548 140.284 325.548 139.614C325.548 138.864 326.344 138.318 327.412 138.318C328.582 138.318 329.065 138.966 329.298 139.568L330.503 139.227ZM338.18 142.432C338.18 144.068 336.93 144.818 335.93 144.818C334.817 144.818 334.021 144 334.021 142.727V137.273H332.68V142.818C332.68 145.045 333.862 146.114 335.499 146.114C336.817 146.114 337.68 145.409 338.089 144.523H338.18V146H339.521V137.273H338.18V142.432ZM341.977 146H343.318V140.545C343.318 139.267 344.25 138.364 345.295 138.364C346.312 138.364 347.023 139.028 347.023 140.023V146H348.386V140.318C348.386 139.193 349.091 138.364 350.318 138.364C351.273 138.364 352.091 138.869 352.091 140.159V146H353.432V140.159C353.432 138.108 352.33 137.159 350.773 137.159C349.523 137.159 348.608 137.733 348.159 138.636H348.068C347.636 137.705 346.875 137.159 345.727 137.159C344.591 137.159 343.75 137.705 343.386 138.636H343.273V137.273H341.977V146ZM356.861 146.091C357.423 146.091 357.884 145.631 357.884 145.068C357.884 144.506 357.423 144.045 356.861 144.045C356.298 144.045 355.838 144.506 355.838 145.068C355.838 145.631 356.298 146.091 356.861 146.091Z" fill="#374151"/>
<defs>
<clipPath id="clip0_2521_1622">
<rect width="32" height="32" fill="white" transform="translate(176)"/>
</clipPath>
</defs>
</svg>
