<svg width="396" height="268" viewBox="0 0 396 268" fill="none" xmlns="http://www.w3.org/2000/svg">
<g filter="url(#filter0_dd_2647_2115)">
<rect x="6" y="2" width="384" height="256" rx="8" fill="white"/>
<g clip-path="url(#clip0_2647_2115)">
<path fill-rule="evenodd" clip-rule="evenodd" d="M62.4508 38.8795H46.2362V47.7961H54.2146C54.4988 47.7961 54.7294 48.049 54.7294 48.3607V56.9904H62.9656V39.4451C62.9657 39.3709 62.9525 39.2974 62.9267 39.2287C62.9009 39.1601 62.863 39.0977 62.8152 39.0452C62.7673 38.9927 62.7105 38.951 62.648 38.9225C62.5855 38.8941 62.5185 38.8795 62.4508 38.8795Z" fill="#8E75FF"/>
<path opacity="0.405" fill-rule="evenodd" clip-rule="evenodd" d="M46.2354 38.8795V47.7961H38.6288C38.5777 47.796 38.5277 47.7792 38.4853 47.748C38.4429 47.7167 38.4099 47.6723 38.3906 47.6204C38.3712 47.5685 38.3663 47.5115 38.3766 47.4566C38.3868 47.4017 38.4117 47.3513 38.4481 47.312L46.2354 38.8795ZM55.1681 65.4322C55.1318 65.4712 55.0859 65.4977 55.0361 65.5082C54.9862 65.5187 54.9346 65.5129 54.8878 65.4914C54.841 65.4699 54.801 65.4337 54.7728 65.3874C54.7446 65.341 54.7296 65.2866 54.7295 65.2309V56.9904H62.9657L55.1681 65.4312V65.4322Z" fill="#8E75FF"/>
<path opacity="0.405" d="M46.2354 47.7961H54.4725C54.6137 47.7961 54.7295 47.9221 54.7295 48.0779V56.9905H46.7511C46.6146 56.9905 46.4836 56.931 46.3871 56.8251C46.2905 56.7192 46.2363 56.5756 46.2363 56.4258V47.7961H46.2354Z" fill="#8E75FF"/>
<path fill-rule="evenodd" clip-rule="evenodd" d="M146.02 38.3169C146.48 38.8165 147.023 39.0653 147.65 39.0653C148.297 39.0653 148.85 38.8165 149.31 38.3169C149.77 37.8173 150 37.2289 150 36.5486C150 35.8694 149.77 35.2748 149.31 34.7649C149.096 34.519 148.838 34.3241 148.553 34.1925C148.267 34.0609 147.96 33.9954 147.65 34C147.023 34 146.48 34.255 146.02 34.7639C145.56 35.2748 145.33 35.8684 145.33 36.5497C145.33 37.2289 145.56 37.8173 146.02 38.3169ZM96.081 44.8325C96.081 44.8841 96.0415 44.9275 95.9935 44.9275H92.7605V51.5546C92.7605 52.1068 92.8885 52.5104 93.1426 52.7654C93.3967 53.0204 93.7695 53.1628 94.2589 53.1948C94.7069 53.2248 95.2527 53.2227 95.8975 53.1897L95.9887 53.1845C96.0005 53.1838 96.0123 53.1857 96.0233 53.1902C96.0344 53.1946 96.0445 53.2015 96.053 53.2104C96.0616 53.2193 96.0684 53.23 96.073 53.2419C96.0777 53.2538 96.0801 53.2666 96.08 53.2795V56.8211C96.0802 56.8446 96.0723 56.8674 96.0581 56.8849C96.0438 56.9024 96.0242 56.9136 96.0029 56.9161L95.9436 56.9233C93.4118 57.2155 91.6207 56.944 90.5723 56.1099C89.505 55.2604 88.9723 53.7419 88.9723 51.5546V44.9275H86.5026C86.4797 44.9275 86.4576 44.9175 86.4414 44.8997C86.4252 44.8818 86.416 44.8577 86.416 44.8325V41.072C86.416 41.0204 86.4546 40.977 86.5026 40.977H88.9713V38.3479C88.9713 38.2715 89.0127 38.2033 89.0758 38.1724L92.6391 36.4722C92.6523 36.4657 92.6668 36.4628 92.6813 36.464C92.6957 36.4652 92.7097 36.4703 92.7219 36.479C92.734 36.4876 92.744 36.4994 92.751 36.5134C92.7579 36.5274 92.7615 36.543 92.7615 36.559V40.977H95.9935C96.0405 40.977 96.08 41.0193 96.08 41.072V44.8325H96.081ZM102.952 43.7177C103.304 42.6978 103.886 41.9329 104.698 41.423C105.5 40.9226 106.406 40.6593 107.328 40.6591C107.376 40.6591 107.416 40.7014 107.416 40.7551V45.0751C107.416 45.0967 107.411 45.1181 107.403 45.1378C107.395 45.1576 107.384 45.1753 107.369 45.1897C107.354 45.2042 107.337 45.2152 107.318 45.2219C107.3 45.2287 107.28 45.231 107.26 45.2289C106.168 45.1215 105.186 45.3827 104.316 46.0113C103.406 46.6689 102.952 47.7631 102.952 49.2929V56.8119C102.952 56.8244 102.949 56.8368 102.945 56.8484C102.94 56.86 102.934 56.8705 102.926 56.8794C102.918 56.8882 102.908 56.8952 102.897 56.8999C102.887 56.9046 102.875 56.907 102.864 56.9068H99.248C99.2251 56.9068 99.2031 56.8968 99.1868 56.879C99.1706 56.8612 99.1615 56.837 99.1615 56.8119V41.071C99.1615 41.0193 99.2 40.976 99.248 40.976H102.864C102.911 40.976 102.951 41.0183 102.951 41.071V43.7156L102.952 43.7177ZM120.868 40.977C120.856 40.9769 120.845 40.9792 120.834 40.9839C120.824 40.9887 120.814 40.9956 120.806 41.0045C120.798 41.0133 120.791 41.0238 120.787 41.0354C120.783 41.047 120.78 41.0594 120.78 41.072V42.8578C119.645 41.3063 118.049 40.5311 115.993 40.5311C114.035 40.5311 112.355 41.3435 110.955 42.9682C109.555 44.593 108.855 46.5842 108.855 48.9419C108.855 51.2996 109.555 53.2908 110.955 54.9156C112.355 56.5404 114.035 57.3528 115.993 57.3528C118.049 57.3528 119.644 56.5775 120.78 55.0271V56.8119C120.78 56.8635 120.82 56.9068 120.868 56.9068H124.483C124.531 56.9068 124.57 56.8645 124.57 56.8119V41.071C124.57 41.0584 124.568 41.046 124.564 41.0344C124.559 41.0228 124.553 41.0123 124.545 41.0034C124.537 40.9946 124.527 40.9876 124.516 40.9829C124.506 40.9782 124.494 40.9758 124.483 40.976H120.868V40.977ZM113.79 52.1915C114.553 53.0204 115.522 53.4343 116.698 53.4343C117.873 53.4343 118.847 53.0142 119.621 52.175C120.394 51.3368 120.78 50.2591 120.78 48.9419C120.78 47.6248 120.394 46.5471 119.621 45.7079C118.847 44.8697 117.873 44.4495 116.697 44.4495C115.523 44.4495 114.553 44.8697 113.789 45.7089C113.027 46.5471 112.644 47.6248 112.644 48.9419C112.644 50.2591 113.026 51.3419 113.79 52.1915ZM141.414 42.9682C140.013 41.3435 138.324 40.5311 136.346 40.5311C134.29 40.5311 132.704 41.3063 131.588 42.8568V41.072C131.588 41.0468 131.579 41.0226 131.562 41.0048C131.546 40.987 131.524 40.977 131.501 40.977H127.885C127.862 40.977 127.84 40.987 127.824 41.0048C127.808 41.0226 127.799 41.0468 127.799 41.072V63.183C127.799 63.2356 127.837 63.279 127.885 63.279H131.501C131.548 63.279 131.588 63.2356 131.588 63.183V55.0271C132.704 56.5775 134.29 57.3528 136.346 57.3528C138.324 57.3528 140.013 56.5404 141.414 54.9156C142.813 53.2908 143.513 51.2996 143.513 48.9419C143.513 46.5842 142.813 44.593 141.414 42.9682ZM132.733 52.1915C133.497 53.0204 134.466 53.4343 135.641 53.4343C136.816 53.4343 137.79 53.0142 138.564 52.175C139.337 51.3368 139.724 50.2591 139.724 48.9419C139.724 47.6248 139.337 46.5471 138.564 45.7079C137.79 44.8697 136.816 44.4495 135.641 44.4495C134.466 44.4495 133.497 44.8697 132.733 45.7089C131.97 46.5471 131.588 47.6248 131.588 48.9419C131.588 50.2591 131.97 51.3419 132.733 52.1915ZM145.857 56.9068C145.834 56.9068 145.812 56.8968 145.796 56.879C145.78 56.8612 145.77 56.837 145.77 56.8119V41.071C145.77 41.0193 145.809 40.976 145.857 40.976H149.473C149.521 40.976 149.56 41.0183 149.56 41.071V56.8129C149.56 56.8381 149.55 56.8622 149.534 56.88C149.518 56.8979 149.496 56.9079 149.473 56.9079H145.857V56.9068ZM78.2946 46.5368C77.7751 46.2715 77.5163 45.9257 77.5163 45.5014C77.5163 45.0978 77.6772 44.7788 78.001 44.5455C78.3238 44.3122 78.7304 44.1946 79.2198 44.1946C80.1582 44.1946 80.8669 44.592 81.3469 45.3858C81.3629 45.4127 81.387 45.4327 81.415 45.4421C81.4431 45.4515 81.4732 45.4499 81.5003 45.4374L84.6984 43.9024C84.7095 43.897 84.7193 43.8891 84.7274 43.8792C84.7355 43.8693 84.7416 43.8576 84.7454 43.845C84.7491 43.8323 84.7503 43.819 84.7491 43.8057C84.7478 43.7925 84.744 43.7797 84.7379 43.7682C84.7011 43.7009 84.6634 43.6342 84.625 43.568C84.0782 42.6338 83.3695 41.937 82.48 41.4075C81.5012 40.8232 80.4142 40.5311 79.2198 40.5311C77.633 40.5311 76.3069 40.9822 75.2386 41.8854C74.1723 42.7876 73.6386 44.0253 73.6386 45.5964C73.6386 46.6379 73.8984 47.503 74.417 48.1935C74.9182 48.8696 75.5711 49.3911 76.3116 49.7068C77.0551 50.0248 77.7996 50.2911 78.544 50.5027C79.2876 50.7153 79.92 50.9548 80.4386 51.2201C80.9572 51.4854 81.217 51.8302 81.217 52.2555C81.217 53.169 80.5412 53.6253 79.1906 53.6253C77.904 53.6253 77.0127 53.1091 76.5167 52.079C76.4968 52.0355 76.4626 52.0021 76.421 51.9854C76.3793 51.9687 76.3335 51.97 76.2927 51.9891L73.104 53.522C73.0934 53.5272 73.0838 53.5346 73.0758 53.5438C73.0679 53.5531 73.0617 53.564 73.0577 53.576C73.0536 53.5879 73.0518 53.6006 73.0523 53.6134C73.0529 53.6261 73.0557 53.6386 73.0607 53.65L73.0965 53.7295C74.2109 56.145 76.2419 57.3528 79.1906 57.3528C80.8744 57.3528 82.2796 56.912 83.4052 56.0315C84.5318 55.1489 85.0946 53.8906 85.0946 52.2555C85.0946 51.1716 84.8349 50.2694 84.3163 49.5468C83.8274 48.8495 83.1714 48.3149 82.4217 48.0026C81.692 47.6995 80.9465 47.4441 80.1892 47.2377C79.4447 47.0353 78.8132 46.802 78.2946 46.5357V46.5368Z" fill="#1D1B84"/>
</g>
<g clip-path="url(#clip1_2647_2115)">
<g clip-path="url(#clip2_2647_2115)">
<path fill-rule="evenodd" clip-rule="evenodd" d="M53.9298 100.03C51.5439 101.158 50.351 102.484 50.351 104.007C51.3679 104.119 52.2088 104.519 52.8738 105.205C53.5387 105.891 53.8712 106.685 53.8712 107.588C53.8712 108.547 53.5485 109.355 52.9031 110.013C52.2577 110.671 51.4461 111 50.4683 111C49.3731 111 48.4246 110.572 47.6228 109.717C46.821 108.862 46.4201 107.823 46.4201 106.601C46.4201 102.935 48.5517 100.068 52.8151 98L53.9298 100.03ZM45.5098 100.03C43.1043 101.158 41.9016 102.484 41.9016 104.007C42.9381 104.119 43.7888 104.519 44.4537 105.205C45.1186 105.891 45.4511 106.685 45.4511 107.588C45.4511 108.547 45.1235 109.355 44.4684 110.013C43.8132 110.671 42.9967 111 42.0189 111C40.9237 111 39.9801 110.572 39.1881 109.717C38.396 108.862 38 107.823 38 106.601C38 102.935 40.1219 100.068 44.3657 98L45.5098 100.03Z" fill="#1DB5BE"/>
</g>
<g clip-path="url(#clip3_2647_2115)">
<path d="M71.5852 119V105.909H73.1705V117.594H79.2557V119H71.5852ZM84.3949 119.23C83.7727 119.23 83.2081 119.113 82.701 118.879C82.1939 118.64 81.7912 118.297 81.4929 117.849C81.1946 117.398 81.0455 116.852 81.0455 116.213C81.0455 115.651 81.1563 115.195 81.3778 114.845C81.5994 114.491 81.8956 114.214 82.2663 114.014C82.6371 113.814 83.0462 113.665 83.4936 113.567C83.9453 113.464 84.3991 113.384 84.8551 113.324C85.4517 113.247 85.9354 113.19 86.3061 113.151C86.6811 113.109 86.9538 113.038 87.1243 112.94C87.299 112.842 87.3864 112.672 87.3864 112.429V112.378C87.3864 111.747 87.2138 111.257 86.8686 110.908C86.5277 110.558 86.0099 110.384 85.3153 110.384C84.5952 110.384 84.0305 110.541 83.6214 110.857C83.2124 111.172 82.9247 111.509 82.7585 111.866L81.3267 111.355C81.5824 110.759 81.9233 110.294 82.3494 109.962C82.7798 109.625 83.2486 109.391 83.7557 109.259C84.267 109.122 84.7699 109.054 85.2642 109.054C85.5795 109.054 85.9418 109.092 86.3509 109.169C86.7642 109.241 87.1626 109.393 87.5462 109.623C87.9339 109.853 88.2557 110.2 88.5114 110.665C88.767 111.129 88.8949 111.751 88.8949 112.531V119H87.3864V117.67H87.3097C87.2074 117.884 87.0369 118.112 86.7983 118.354C86.5597 118.597 86.2422 118.804 85.8459 118.974C85.4496 119.145 84.9659 119.23 84.3949 119.23ZM84.625 117.875C85.2216 117.875 85.7244 117.758 86.1335 117.523C86.5469 117.289 86.858 116.987 87.0668 116.616C87.2798 116.245 87.3864 115.855 87.3864 115.446V114.065C87.3224 114.142 87.1818 114.212 86.9645 114.276C86.7514 114.336 86.5043 114.389 86.223 114.436C85.946 114.479 85.6754 114.517 85.4112 114.551C85.1513 114.581 84.9403 114.607 84.7784 114.628C84.3864 114.679 84.0199 114.762 83.679 114.877C83.3423 114.988 83.0696 115.156 82.8608 115.382C82.6563 115.604 82.554 115.906 82.554 116.29C82.554 116.814 82.7479 117.21 83.1357 117.479C83.5277 117.743 84.0241 117.875 84.625 117.875ZM93.1568 113.094V119H91.6483V109.182H93.1056V110.716H93.2335C93.4636 110.217 93.813 109.817 94.2818 109.514C94.7505 109.207 95.3556 109.054 96.0971 109.054C96.7619 109.054 97.3436 109.19 97.8422 109.463C98.3407 109.732 98.7285 110.141 99.0055 110.69C99.2825 111.236 99.421 111.926 99.421 112.761V119H97.9125V112.864C97.9125 112.092 97.7122 111.491 97.3116 111.061C96.911 110.626 96.3613 110.409 95.6625 110.409C95.1809 110.409 94.7505 110.513 94.3713 110.722C93.9963 110.931 93.7001 111.236 93.4828 111.636C93.2654 112.037 93.1568 112.523 93.1568 113.094ZM105.885 119.205C105.067 119.205 104.344 118.998 103.718 118.585C103.092 118.167 102.602 117.579 102.248 116.82C101.894 116.058 101.717 115.156 101.717 114.116C101.717 113.085 101.894 112.19 102.248 111.432C102.602 110.673 103.094 110.087 103.724 109.674C104.355 109.261 105.084 109.054 105.911 109.054C106.55 109.054 107.055 109.161 107.425 109.374C107.8 109.582 108.086 109.821 108.282 110.089C108.482 110.354 108.638 110.571 108.749 110.741H108.876V105.909H110.385V119H108.928V117.491H108.749C108.638 117.67 108.48 117.896 108.276 118.169C108.071 118.437 107.779 118.678 107.4 118.891C107.021 119.1 106.516 119.205 105.885 119.205ZM106.089 117.849C106.695 117.849 107.206 117.692 107.624 117.376C108.041 117.057 108.359 116.616 108.576 116.053C108.793 115.487 108.902 114.832 108.902 114.091C108.902 113.358 108.795 112.717 108.582 112.167C108.369 111.613 108.054 111.183 107.636 110.876C107.219 110.565 106.703 110.409 106.089 110.409C105.45 110.409 104.918 110.573 104.491 110.901C104.07 111.225 103.752 111.666 103.539 112.224C103.33 112.778 103.226 113.401 103.226 114.091C103.226 114.79 103.332 115.425 103.545 115.996C103.763 116.562 104.082 117.014 104.504 117.351C104.93 117.683 105.459 117.849 106.089 117.849ZM113.357 119V109.182H114.866V119H113.357ZM114.124 107.545C113.83 107.545 113.577 107.445 113.364 107.245C113.155 107.045 113.05 106.804 113.05 106.523C113.05 106.241 113.155 106.001 113.364 105.8C113.577 105.6 113.83 105.5 114.124 105.5C114.418 105.5 114.67 105.6 114.879 105.8C115.092 106.001 115.198 106.241 115.198 106.523C115.198 106.804 115.092 107.045 114.879 107.245C114.67 107.445 114.418 107.545 114.124 107.545ZM122.001 109.182V110.46H116.708V109.182H122.001ZM118.294 119V107.827C118.294 107.264 118.426 106.795 118.69 106.42C118.954 106.045 119.297 105.764 119.719 105.577C120.141 105.389 120.586 105.295 121.055 105.295C121.426 105.295 121.728 105.325 121.963 105.385C122.197 105.445 122.372 105.5 122.487 105.551L122.052 106.855C121.975 106.83 121.869 106.798 121.732 106.759C121.6 106.721 121.426 106.702 121.208 106.702C120.71 106.702 120.35 106.827 120.128 107.079C119.911 107.33 119.802 107.699 119.802 108.185V119H118.294ZM125.087 122.682C124.831 122.682 124.603 122.661 124.403 122.618C124.202 122.58 124.064 122.541 123.987 122.503L124.371 121.173C124.737 121.267 125.061 121.301 125.342 121.276C125.624 121.25 125.873 121.124 126.09 120.898C126.312 120.677 126.514 120.317 126.697 119.818L126.979 119.051L123.348 109.182H124.984L127.695 117.006H127.797L130.507 109.182H132.143L127.976 120.432C127.788 120.939 127.556 121.359 127.279 121.691C127.002 122.028 126.68 122.277 126.314 122.439C125.952 122.601 125.543 122.682 125.087 122.682ZM146.152 111.381L144.797 111.764C144.711 111.538 144.586 111.319 144.419 111.106C144.257 110.888 144.036 110.71 143.755 110.569C143.473 110.428 143.113 110.358 142.674 110.358C142.074 110.358 141.573 110.496 141.172 110.773C140.776 111.046 140.578 111.393 140.578 111.815C140.578 112.19 140.714 112.487 140.987 112.704C141.26 112.921 141.686 113.102 142.265 113.247L143.723 113.605C144.6 113.818 145.255 114.144 145.685 114.583C146.115 115.018 146.331 115.578 146.331 116.264C146.331 116.827 146.169 117.33 145.845 117.773C145.525 118.216 145.078 118.565 144.502 118.821C143.927 119.077 143.258 119.205 142.495 119.205C141.494 119.205 140.665 118.987 140.009 118.553C139.353 118.118 138.937 117.483 138.762 116.648L140.194 116.29C140.331 116.818 140.588 117.214 140.968 117.479C141.351 117.743 141.852 117.875 142.47 117.875C143.173 117.875 143.731 117.726 144.145 117.428C144.562 117.125 144.771 116.763 144.771 116.341C144.771 116 144.652 115.714 144.413 115.484C144.174 115.25 143.808 115.075 143.314 114.96L141.677 114.577C140.778 114.364 140.118 114.033 139.696 113.586C139.278 113.134 139.069 112.57 139.069 111.892C139.069 111.338 139.225 110.848 139.536 110.422C139.851 109.996 140.279 109.661 140.821 109.418C141.366 109.175 141.984 109.054 142.674 109.054C143.646 109.054 144.409 109.267 144.963 109.693C145.521 110.119 145.917 110.682 146.152 111.381ZM151.491 119.23C150.868 119.23 150.304 119.113 149.797 118.879C149.29 118.64 148.887 118.297 148.589 117.849C148.29 117.398 148.141 116.852 148.141 116.213C148.141 115.651 148.252 115.195 148.474 114.845C148.695 114.491 148.991 114.214 149.362 114.014C149.733 113.814 150.142 113.665 150.589 113.567C151.041 113.464 151.495 113.384 151.951 113.324C152.547 113.247 153.031 113.19 153.402 113.151C153.777 113.109 154.05 113.038 154.22 112.94C154.395 112.842 154.482 112.672 154.482 112.429V112.378C154.482 111.747 154.309 111.257 153.964 110.908C153.623 110.558 153.106 110.384 152.411 110.384C151.691 110.384 151.126 110.541 150.717 110.857C150.308 111.172 150.02 111.509 149.854 111.866L148.422 111.355C148.678 110.759 149.019 110.294 149.445 109.962C149.876 109.625 150.344 109.391 150.851 109.259C151.363 109.122 151.866 109.054 152.36 109.054C152.675 109.054 153.037 109.092 153.447 109.169C153.86 109.241 154.258 109.393 154.642 109.623C155.03 109.853 155.351 110.2 155.607 110.665C155.863 111.129 155.991 111.751 155.991 112.531V119H154.482V117.67H154.405C154.303 117.884 154.133 118.112 153.894 118.354C153.655 118.597 153.338 118.804 152.942 118.974C152.545 119.145 152.062 119.23 151.491 119.23ZM151.721 117.875C152.317 117.875 152.82 117.758 153.229 117.523C153.643 117.289 153.954 116.987 154.162 116.616C154.376 116.245 154.482 115.855 154.482 115.446V114.065C154.418 114.142 154.278 114.212 154.06 114.276C153.847 114.336 153.6 114.389 153.319 114.436C153.042 114.479 152.771 114.517 152.507 114.551C152.247 114.581 152.036 114.607 151.874 114.628C151.482 114.679 151.116 114.762 150.775 114.877C150.438 114.988 150.165 115.156 149.956 115.382C149.752 115.604 149.65 115.906 149.65 116.29C149.65 116.814 149.844 117.21 150.231 117.479C150.623 117.743 151.12 117.875 151.721 117.875ZM166.421 109.182L162.79 119H161.256L157.625 109.182H159.262L161.972 117.006H162.074L164.784 109.182H166.421ZM172.177 119.205C171.231 119.205 170.415 118.996 169.729 118.578C169.047 118.156 168.521 117.568 168.15 116.814C167.783 116.055 167.6 115.173 167.6 114.168C167.6 113.162 167.783 112.276 168.15 111.509C168.521 110.737 169.036 110.136 169.697 109.706C170.362 109.271 171.137 109.054 172.023 109.054C172.535 109.054 173.04 109.139 173.538 109.31C174.037 109.48 174.491 109.757 174.9 110.141C175.309 110.52 175.635 111.023 175.878 111.649C176.121 112.276 176.242 113.047 176.242 113.963V114.602H168.674V113.298H174.708C174.708 112.744 174.597 112.25 174.376 111.815C174.158 111.381 173.847 111.038 173.442 110.786C173.042 110.535 172.569 110.409 172.023 110.409C171.423 110.409 170.903 110.558 170.464 110.857C170.029 111.151 169.695 111.534 169.46 112.007C169.226 112.48 169.109 112.987 169.109 113.528V114.398C169.109 115.139 169.237 115.768 169.492 116.283C169.752 116.795 170.112 117.185 170.572 117.453C171.033 117.717 171.567 117.849 172.177 117.849C172.573 117.849 172.931 117.794 173.251 117.683C173.575 117.568 173.854 117.398 174.088 117.172C174.322 116.942 174.504 116.656 174.631 116.315L176.089 116.724C175.935 117.219 175.678 117.653 175.315 118.028C174.953 118.399 174.506 118.689 173.973 118.898C173.44 119.102 172.842 119.205 172.177 119.205ZM182.244 119.205C181.426 119.205 180.704 118.998 180.077 118.585C179.451 118.167 178.961 117.579 178.607 116.82C178.254 116.058 178.077 115.156 178.077 114.116C178.077 113.085 178.254 112.19 178.607 111.432C178.961 110.673 179.453 110.087 180.084 109.674C180.714 109.261 181.443 109.054 182.27 109.054C182.909 109.054 183.414 109.161 183.785 109.374C184.16 109.582 184.445 109.821 184.641 110.089C184.842 110.354 184.997 110.571 185.108 110.741H185.236V105.909H186.744V119H185.287V117.491H185.108C184.997 117.67 184.839 117.896 184.635 118.169C184.43 118.437 184.138 118.678 183.759 118.891C183.38 119.1 182.875 119.205 182.244 119.205ZM182.449 117.849C183.054 117.849 183.565 117.692 183.983 117.376C184.401 117.057 184.718 116.616 184.935 116.053C185.153 115.487 185.261 114.832 185.261 114.091C185.261 113.358 185.155 112.717 184.942 112.167C184.729 111.613 184.413 111.183 183.996 110.876C183.578 110.565 183.063 110.409 182.449 110.409C181.81 110.409 181.277 110.573 180.851 110.901C180.429 111.225 180.112 111.666 179.898 112.224C179.69 112.778 179.585 113.401 179.585 114.091C179.585 114.79 179.692 115.425 179.905 115.996C180.122 116.562 180.442 117.014 180.864 117.351C181.29 117.683 181.818 117.849 182.449 117.849ZM198.768 119.205C197.881 119.205 197.104 118.994 196.435 118.572C195.77 118.15 195.25 117.56 194.875 116.801C194.504 116.043 194.319 115.156 194.319 114.142C194.319 113.119 194.504 112.227 194.875 111.464C195.25 110.701 195.77 110.109 196.435 109.687C197.104 109.265 197.881 109.054 198.768 109.054C199.654 109.054 200.43 109.265 201.094 109.687C201.763 110.109 202.283 110.701 202.654 111.464C203.029 112.227 203.217 113.119 203.217 114.142C203.217 115.156 203.029 116.043 202.654 116.801C202.283 117.56 201.763 118.15 201.094 118.572C200.43 118.994 199.654 119.205 198.768 119.205ZM198.768 117.849C199.441 117.849 199.995 117.677 200.43 117.332C200.864 116.987 201.186 116.533 201.395 115.97C201.604 115.408 201.708 114.798 201.708 114.142C201.708 113.486 201.604 112.874 201.395 112.308C201.186 111.741 200.864 111.283 200.43 110.933C199.995 110.584 199.441 110.409 198.768 110.409C198.094 110.409 197.54 110.584 197.106 110.933C196.671 111.283 196.349 111.741 196.141 112.308C195.932 112.874 195.827 113.486 195.827 114.142C195.827 114.798 195.932 115.408 196.141 115.97C196.349 116.533 196.671 116.987 197.106 117.332C197.54 117.677 198.094 117.849 198.768 117.849ZM211.707 114.986V109.182H213.215V119H211.707V117.338H211.605C211.374 117.837 211.017 118.261 210.531 118.61C210.045 118.955 209.431 119.128 208.69 119.128C208.076 119.128 207.531 118.994 207.053 118.725C206.576 118.452 206.201 118.043 205.928 117.498C205.656 116.948 205.519 116.256 205.519 115.42V109.182H207.028V115.318C207.028 116.034 207.228 116.605 207.629 117.031C208.034 117.457 208.549 117.67 209.176 117.67C209.551 117.67 209.932 117.575 210.32 117.383C210.712 117.191 211.04 116.897 211.304 116.501C211.573 116.104 211.707 115.599 211.707 114.986ZM215.978 119V109.182H217.436V110.665H217.538C217.717 110.179 218.041 109.785 218.51 109.482C218.978 109.18 219.507 109.028 220.095 109.028C220.206 109.028 220.344 109.031 220.51 109.035C220.676 109.039 220.802 109.045 220.887 109.054V110.588C220.836 110.575 220.719 110.556 220.536 110.531C220.357 110.501 220.167 110.486 219.967 110.486C219.49 110.486 219.064 110.586 218.689 110.786C218.318 110.982 218.024 111.255 217.806 111.604C217.593 111.95 217.487 112.344 217.487 112.787V119H215.978ZM232.008 109.182V110.46H226.92V109.182H232.008ZM228.403 106.83H229.911V116.188C229.911 116.614 229.973 116.933 230.097 117.146C230.225 117.355 230.387 117.496 230.583 117.568C230.783 117.636 230.994 117.67 231.215 117.67C231.382 117.67 231.518 117.662 231.624 117.645C231.731 117.624 231.816 117.607 231.88 117.594L232.187 118.949C232.085 118.987 231.942 119.026 231.759 119.064C231.575 119.107 231.343 119.128 231.062 119.128C230.636 119.128 230.218 119.036 229.809 118.853C229.404 118.67 229.068 118.391 228.799 118.016C228.535 117.641 228.403 117.168 228.403 116.597V106.83ZM234.277 119V109.182H235.786V119H234.277ZM235.044 107.545C234.75 107.545 234.497 107.445 234.284 107.245C234.075 107.045 233.97 106.804 233.97 106.523C233.97 106.241 234.075 106.001 234.284 105.8C234.497 105.6 234.75 105.5 235.044 105.5C235.338 105.5 235.59 105.6 235.798 105.8C236.012 106.001 236.118 106.241 236.118 106.523C236.118 106.804 236.012 107.045 235.798 107.245C235.59 107.445 235.338 107.545 235.044 107.545ZM238.549 119V109.182H240.006V110.716H240.134C240.338 110.192 240.669 109.785 241.125 109.495C241.581 109.201 242.128 109.054 242.767 109.054C243.415 109.054 243.954 109.201 244.385 109.495C244.819 109.785 245.158 110.192 245.401 110.716H245.503C245.755 110.209 246.132 109.806 246.635 109.508C247.137 109.205 247.74 109.054 248.444 109.054C249.321 109.054 250.039 109.329 250.598 109.879C251.156 110.424 251.435 111.274 251.435 112.429V119H249.926V112.429C249.926 111.705 249.728 111.187 249.332 110.876C248.936 110.565 248.469 110.409 247.932 110.409C247.242 110.409 246.707 110.618 246.328 111.036C245.949 111.449 245.759 111.973 245.759 112.608V119H244.225V112.276C244.225 111.717 244.044 111.268 243.681 110.927C243.319 110.582 242.853 110.409 242.282 110.409C241.89 110.409 241.523 110.513 241.182 110.722C240.846 110.931 240.573 111.221 240.364 111.592C240.159 111.958 240.057 112.382 240.057 112.864V119H238.549ZM258.31 119.205C257.364 119.205 256.548 118.996 255.862 118.578C255.18 118.156 254.653 117.568 254.283 116.814C253.916 116.055 253.733 115.173 253.733 114.168C253.733 113.162 253.916 112.276 254.283 111.509C254.653 110.737 255.169 110.136 255.83 109.706C256.494 109.271 257.27 109.054 258.156 109.054C258.668 109.054 259.173 109.139 259.671 109.31C260.17 109.48 260.624 109.757 261.033 110.141C261.442 110.52 261.768 111.023 262.011 111.649C262.254 112.276 262.375 113.047 262.375 113.963V114.602H254.807V113.298H260.841C260.841 112.744 260.73 112.25 260.509 111.815C260.291 111.381 259.98 111.038 259.575 110.786C259.175 110.535 258.702 110.409 258.156 110.409C257.555 110.409 257.036 110.558 256.597 110.857C256.162 111.151 255.827 111.534 255.593 112.007C255.359 112.48 255.241 112.987 255.241 113.528V114.398C255.241 115.139 255.369 115.768 255.625 116.283C255.885 116.795 256.245 117.185 256.705 117.453C257.165 117.717 257.7 117.849 258.31 117.849C258.706 117.849 259.064 117.794 259.384 117.683C259.707 117.568 259.987 117.398 260.221 117.172C260.455 116.942 260.636 116.656 260.764 116.315L262.222 116.724C262.068 117.219 261.81 117.653 261.448 118.028C261.086 118.399 260.638 118.689 260.106 118.898C259.573 119.102 258.974 119.205 258.31 119.205ZM269.732 119V109.182H271.241V119H269.732ZM270.499 107.545C270.205 107.545 269.952 107.445 269.739 107.245C269.53 107.045 269.425 106.804 269.425 106.523C269.425 106.241 269.53 106.001 269.739 105.8C269.952 105.6 270.205 105.5 270.499 105.5C270.793 105.5 271.045 105.6 271.254 105.8C271.467 106.001 271.573 106.241 271.573 106.523C271.573 106.804 271.467 107.045 271.254 107.245C271.045 107.445 270.793 107.545 270.499 107.545ZM275.512 113.094V119H274.004V109.182H275.461V110.716H275.589C275.819 110.217 276.169 109.817 276.637 109.514C277.106 109.207 277.711 109.054 278.453 109.054C279.117 109.054 279.699 109.19 280.198 109.463C280.696 109.732 281.084 110.141 281.361 110.69C281.638 111.236 281.776 111.926 281.776 112.761V119H280.268V112.864C280.268 112.092 280.068 111.491 279.667 111.061C279.267 110.626 278.717 110.409 278.018 110.409C277.536 110.409 277.106 110.513 276.727 110.722C276.352 110.931 276.056 111.236 275.838 111.636C275.621 112.037 275.512 112.523 275.512 113.094ZM75.0881 147.205C74.2699 147.205 73.5476 146.998 72.9212 146.585C72.2947 146.167 71.8047 145.579 71.451 144.82C71.0973 144.058 70.9205 143.156 70.9205 142.116C70.9205 141.085 71.0973 140.19 71.451 139.432C71.8047 138.673 72.2969 138.087 72.9276 137.674C73.5582 137.261 74.2869 137.054 75.1136 137.054C75.7528 137.054 76.2578 137.161 76.6286 137.374C77.0036 137.582 77.2891 137.821 77.4851 138.089C77.6854 138.354 77.8409 138.571 77.9517 138.741H78.0795V133.909H79.5881V147H78.1307V145.491H77.9517C77.8409 145.67 77.6832 145.896 77.4787 146.169C77.2741 146.437 76.9822 146.678 76.603 146.891C76.2237 147.1 75.7188 147.205 75.0881 147.205ZM75.2926 145.849C75.8977 145.849 76.4091 145.692 76.8267 145.376C77.2443 145.057 77.5618 144.616 77.7791 144.053C77.9964 143.487 78.1051 142.832 78.1051 142.091C78.1051 141.358 77.9986 140.717 77.7855 140.167C77.5724 139.613 77.2571 139.183 76.8395 138.876C76.4219 138.565 75.9063 138.409 75.2926 138.409C74.6534 138.409 74.1207 138.573 73.6946 138.901C73.2727 139.225 72.9553 139.666 72.7422 140.224C72.5334 140.778 72.429 141.401 72.429 142.091C72.429 142.79 72.5355 143.425 72.7486 143.996C72.9659 144.562 73.2855 145.014 73.7074 145.351C74.1335 145.683 74.6619 145.849 75.2926 145.849ZM86.6768 147.205C85.7308 147.205 84.9148 146.996 84.2287 146.578C83.5469 146.156 83.0206 145.568 82.6499 144.814C82.2834 144.055 82.1001 143.173 82.1001 142.168C82.1001 141.162 82.2834 140.276 82.6499 139.509C83.0206 138.737 83.5362 138.136 84.1967 137.706C84.8615 137.271 85.6371 137.054 86.5234 137.054C87.0348 137.054 87.5398 137.139 88.0384 137.31C88.5369 137.48 88.9908 137.757 89.3999 138.141C89.8089 138.52 90.1349 139.023 90.3778 139.649C90.6207 140.276 90.7422 141.047 90.7422 141.963V142.602H83.174V141.298H89.2081C89.2081 140.744 89.0973 140.25 88.8757 139.815C88.6584 139.381 88.3473 139.038 87.9425 138.786C87.5419 138.535 87.0689 138.409 86.5234 138.409C85.9226 138.409 85.4027 138.558 84.9638 138.857C84.5291 139.151 84.1946 139.534 83.9602 140.007C83.7259 140.48 83.6087 140.987 83.6087 141.528V142.398C83.6087 143.139 83.7365 143.768 83.9922 144.283C84.2521 144.795 84.6122 145.185 85.0724 145.453C85.5327 145.717 86.0675 145.849 86.6768 145.849C87.0732 145.849 87.4311 145.794 87.7507 145.683C88.0746 145.568 88.3537 145.398 88.5881 145.172C88.8224 144.942 89.0036 144.656 89.1314 144.315L90.5888 144.724C90.4354 145.219 90.1776 145.653 89.8153 146.028C89.4531 146.399 89.0057 146.689 88.473 146.898C87.9403 147.102 87.3416 147.205 86.6768 147.205ZM99.9915 139.381L98.6364 139.764C98.5511 139.538 98.4254 139.319 98.2592 139.106C98.0973 138.888 97.8757 138.71 97.5945 138.569C97.3132 138.428 96.9531 138.358 96.5142 138.358C95.9134 138.358 95.4126 138.496 95.0121 138.773C94.6158 139.046 94.4176 139.393 94.4176 139.815C94.4176 140.19 94.554 140.487 94.8267 140.704C95.0994 140.921 95.5256 141.102 96.1051 141.247L97.5625 141.605C98.4403 141.818 99.0945 142.144 99.5249 142.583C99.9553 143.018 100.17 143.578 100.17 144.264C100.17 144.827 100.009 145.33 99.6847 145.773C99.3651 146.216 98.9176 146.565 98.3423 146.821C97.767 147.077 97.098 147.205 96.3352 147.205C95.3338 147.205 94.505 146.987 93.8487 146.553C93.1925 146.118 92.777 145.483 92.6023 144.648L94.0341 144.29C94.1705 144.818 94.4283 145.214 94.8075 145.479C95.1911 145.743 95.6918 145.875 96.3097 145.875C97.0128 145.875 97.571 145.726 97.9844 145.428C98.402 145.125 98.6108 144.763 98.6108 144.341C98.6108 144 98.4915 143.714 98.2528 143.484C98.0142 143.25 97.6477 143.075 97.1534 142.96L95.517 142.577C94.6179 142.364 93.9574 142.033 93.5355 141.586C93.1179 141.134 92.9091 140.57 92.9091 139.892C92.9091 139.338 93.0646 138.848 93.3757 138.422C93.6911 137.996 94.1193 137.661 94.6605 137.418C95.206 137.175 95.8239 137.054 96.5142 137.054C97.4858 137.054 98.2486 137.267 98.8026 137.693C99.3608 138.119 99.7571 138.682 99.9915 139.381ZM102.441 147V137.182H103.95V147H102.441ZM103.208 135.545C102.914 135.545 102.661 135.445 102.448 135.245C102.239 135.045 102.134 134.804 102.134 134.523C102.134 134.241 102.239 134.001 102.448 133.8C102.661 133.6 102.914 133.5 103.208 133.5C103.502 133.5 103.754 133.6 103.963 133.8C104.176 134.001 104.282 134.241 104.282 134.523C104.282 134.804 104.176 135.045 103.963 135.245C103.754 135.445 103.502 135.545 103.208 135.545ZM110.676 150.886C109.947 150.886 109.321 150.793 108.797 150.605C108.272 150.422 107.836 150.179 107.486 149.876C107.141 149.578 106.866 149.259 106.662 148.918L107.863 148.074C108 148.253 108.172 148.457 108.381 148.688C108.59 148.922 108.875 149.124 109.238 149.295C109.604 149.469 110.083 149.557 110.676 149.557C111.468 149.557 112.123 149.365 112.638 148.982C113.154 148.598 113.412 147.997 113.412 147.179V145.185H113.284C113.173 145.364 113.015 145.585 112.811 145.849C112.61 146.109 112.321 146.342 111.941 146.546C111.566 146.746 111.059 146.847 110.42 146.847C109.627 146.847 108.916 146.659 108.285 146.284C107.659 145.909 107.162 145.364 106.796 144.648C106.434 143.932 106.252 143.062 106.252 142.04C106.252 141.034 106.429 140.158 106.783 139.413C107.137 138.663 107.629 138.083 108.26 137.674C108.89 137.261 109.619 137.054 110.446 137.054C111.085 137.054 111.592 137.161 111.967 137.374C112.346 137.582 112.636 137.821 112.836 138.089C113.041 138.354 113.199 138.571 113.309 138.741H113.463V137.182H114.92V147.281C114.92 148.125 114.728 148.811 114.345 149.339C113.966 149.872 113.454 150.262 112.811 150.509C112.172 150.761 111.46 150.886 110.676 150.886ZM110.625 145.491C111.23 145.491 111.741 145.353 112.159 145.076C112.576 144.799 112.894 144.401 113.111 143.881C113.328 143.361 113.437 142.739 113.437 142.014C113.437 141.307 113.331 140.683 113.118 140.141C112.904 139.6 112.589 139.176 112.172 138.869C111.754 138.562 111.238 138.409 110.625 138.409C109.985 138.409 109.453 138.571 109.027 138.895C108.605 139.219 108.287 139.653 108.074 140.199C107.865 140.744 107.761 141.349 107.761 142.014C107.761 142.696 107.868 143.299 108.081 143.823C108.298 144.343 108.618 144.752 109.039 145.05C109.466 145.344 109.994 145.491 110.625 145.491ZM119.19 141.094V147H117.681V137.182H119.139V138.716H119.267C119.497 138.217 119.846 137.817 120.315 137.514C120.784 137.207 121.389 137.054 122.13 137.054C122.795 137.054 123.377 137.19 123.875 137.463C124.374 137.732 124.762 138.141 125.039 138.69C125.316 139.236 125.454 139.926 125.454 140.761V147H123.946V140.864C123.946 140.092 123.745 139.491 123.345 139.061C122.944 138.626 122.395 138.409 121.696 138.409C121.214 138.409 120.784 138.513 120.404 138.722C120.029 138.931 119.733 139.236 119.516 139.636C119.299 140.037 119.19 140.523 119.19 141.094ZM128.211 147V137.182H129.719V147H128.211ZM128.978 135.545C128.684 135.545 128.43 135.445 128.217 135.245C128.008 135.045 127.904 134.804 127.904 134.523C127.904 134.241 128.008 134.001 128.217 133.8C128.43 133.6 128.684 133.5 128.978 133.5C129.272 133.5 129.523 133.6 129.732 133.8C129.945 134.001 130.052 134.241 130.052 134.523C130.052 134.804 129.945 135.045 129.732 135.245C129.523 135.445 129.272 135.545 128.978 135.545ZM133.991 141.094V147H132.482V137.182H133.94V138.716H134.067C134.298 138.217 134.647 137.817 135.116 137.514C135.585 137.207 136.19 137.054 136.931 137.054C137.596 137.054 138.178 137.19 138.676 137.463C139.175 137.732 139.563 138.141 139.839 138.69C140.116 139.236 140.255 139.926 140.255 140.761V147H138.746V140.864C138.746 140.092 138.546 139.491 138.146 139.061C137.745 138.626 137.195 138.409 136.496 138.409C136.015 138.409 135.585 138.513 135.205 138.722C134.83 138.931 134.534 139.236 134.317 139.636C134.099 140.037 133.991 140.523 133.991 141.094ZM146.975 150.886C146.246 150.886 145.619 150.793 145.095 150.605C144.571 150.422 144.134 150.179 143.785 149.876C143.44 149.578 143.165 149.259 142.96 148.918L144.162 148.074C144.298 148.253 144.471 148.457 144.68 148.688C144.889 148.922 145.174 149.124 145.536 149.295C145.903 149.469 146.382 149.557 146.975 149.557C147.767 149.557 148.421 149.365 148.937 148.982C149.453 148.598 149.71 147.997 149.71 147.179V145.185H149.583C149.472 145.364 149.314 145.585 149.11 145.849C148.909 146.109 148.619 146.342 148.24 146.546C147.865 146.746 147.358 146.847 146.719 146.847C145.926 146.847 145.215 146.659 144.584 146.284C143.958 145.909 143.461 145.364 143.095 144.648C142.732 143.932 142.551 143.062 142.551 142.04C142.551 141.034 142.728 140.158 143.082 139.413C143.436 138.663 143.928 138.083 144.558 137.674C145.189 137.261 145.918 137.054 146.744 137.054C147.384 137.054 147.891 137.161 148.266 137.374C148.645 137.582 148.935 137.821 149.135 138.089C149.34 138.354 149.497 138.571 149.608 138.741H149.762V137.182H151.219V147.281C151.219 148.125 151.027 148.811 150.644 149.339C150.264 149.872 149.753 150.262 149.11 150.509C148.47 150.761 147.759 150.886 146.975 150.886ZM146.923 145.491C147.529 145.491 148.04 145.353 148.458 145.076C148.875 144.799 149.193 144.401 149.41 143.881C149.627 143.361 149.736 142.739 149.736 142.014C149.736 141.307 149.629 140.683 149.416 140.141C149.203 139.6 148.888 139.176 148.47 138.869C148.053 138.562 147.537 138.409 146.923 138.409C146.284 138.409 145.752 138.571 145.325 138.895C144.904 139.219 144.586 139.653 144.373 140.199C144.164 140.744 144.06 141.349 144.06 142.014C144.06 142.696 144.166 143.299 144.379 143.823C144.597 144.343 144.916 144.752 145.338 145.05C145.764 145.344 146.293 145.491 146.923 145.491ZM159.043 147V137.182H160.5V138.716H160.628C160.833 138.192 161.163 137.785 161.619 137.495C162.075 137.201 162.622 137.054 163.262 137.054C163.909 137.054 164.448 137.201 164.879 137.495C165.313 137.785 165.652 138.192 165.895 138.716H165.997C166.249 138.209 166.626 137.806 167.129 137.508C167.632 137.205 168.235 137.054 168.938 137.054C169.816 137.054 170.534 137.329 171.092 137.879C171.65 138.424 171.929 139.274 171.929 140.429V147H170.421V140.429C170.421 139.705 170.222 139.187 169.826 138.876C169.43 138.565 168.963 138.409 168.426 138.409C167.736 138.409 167.201 138.618 166.822 139.036C166.443 139.449 166.253 139.973 166.253 140.608V147H164.719V140.276C164.719 139.717 164.538 139.268 164.176 138.927C163.813 138.582 163.347 138.409 162.776 138.409C162.384 138.409 162.017 138.513 161.676 138.722C161.34 138.931 161.067 139.221 160.858 139.592C160.654 139.958 160.551 140.382 160.551 140.864V147H159.043ZM175.307 150.682C175.052 150.682 174.824 150.661 174.623 150.618C174.423 150.58 174.285 150.541 174.208 150.503L174.591 149.173C174.958 149.267 175.282 149.301 175.563 149.276C175.844 149.25 176.094 149.124 176.311 148.898C176.532 148.677 176.735 148.317 176.918 147.818L177.199 147.051L173.569 137.182H175.205L177.915 145.006H178.018L180.728 137.182H182.364L178.197 148.432C178.009 148.939 177.777 149.359 177.5 149.691C177.223 150.028 176.901 150.277 176.535 150.439C176.172 150.601 175.763 150.682 175.307 150.682ZM193.406 147.205C192.486 147.205 191.693 146.987 191.029 146.553C190.364 146.118 189.852 145.519 189.494 144.756C189.137 143.994 188.958 143.122 188.958 142.142C188.958 141.145 189.141 140.265 189.507 139.502C189.878 138.735 190.394 138.136 191.054 137.706C191.719 137.271 192.494 137.054 193.381 137.054C194.071 137.054 194.693 137.182 195.247 137.438C195.801 137.693 196.255 138.051 196.609 138.511C196.963 138.972 197.182 139.509 197.267 140.122H195.759C195.644 139.675 195.388 139.278 194.992 138.933C194.6 138.584 194.071 138.409 193.406 138.409C192.818 138.409 192.303 138.562 191.86 138.869C191.421 139.172 191.078 139.6 190.83 140.154C190.588 140.704 190.466 141.349 190.466 142.091C190.466 142.849 190.585 143.51 190.824 144.072C191.067 144.635 191.408 145.072 191.847 145.383C192.29 145.694 192.81 145.849 193.406 145.849C193.798 145.849 194.154 145.781 194.474 145.645C194.794 145.509 195.064 145.312 195.286 145.057C195.507 144.801 195.665 144.494 195.759 144.136H197.267C197.182 144.716 196.971 145.238 196.634 145.702C196.302 146.163 195.861 146.529 195.311 146.802C194.766 147.07 194.131 147.205 193.406 147.205ZM203.461 147.205C202.575 147.205 201.797 146.994 201.128 146.572C200.463 146.15 199.943 145.56 199.568 144.801C199.198 144.043 199.012 143.156 199.012 142.142C199.012 141.119 199.198 140.227 199.568 139.464C199.943 138.701 200.463 138.109 201.128 137.687C201.797 137.265 202.575 137.054 203.461 137.054C204.347 137.054 205.123 137.265 205.788 137.687C206.457 138.109 206.977 138.701 207.347 139.464C207.722 140.227 207.91 141.119 207.91 142.142C207.91 143.156 207.722 144.043 207.347 144.801C206.977 145.56 206.457 146.15 205.788 146.572C205.123 146.994 204.347 147.205 203.461 147.205ZM203.461 145.849C204.134 145.849 204.688 145.677 205.123 145.332C205.558 144.987 205.879 144.533 206.088 143.97C206.297 143.408 206.401 142.798 206.401 142.142C206.401 141.486 206.297 140.874 206.088 140.308C205.879 139.741 205.558 139.283 205.123 138.933C204.688 138.584 204.134 138.409 203.461 138.409C202.788 138.409 202.234 138.584 201.799 138.933C201.365 139.283 201.043 139.741 200.834 140.308C200.625 140.874 200.521 141.486 200.521 142.142C200.521 142.798 200.625 143.408 200.834 143.97C201.043 144.533 201.365 144.987 201.799 145.332C202.234 145.677 202.788 145.849 203.461 145.849ZM210.213 147V137.182H211.67V138.716H211.798C212.002 138.192 212.333 137.785 212.789 137.495C213.245 137.201 213.792 137.054 214.431 137.054C215.079 137.054 215.618 137.201 216.049 137.495C216.483 137.785 216.822 138.192 217.065 138.716H217.167C217.419 138.209 217.796 137.806 218.299 137.508C218.801 137.205 219.404 137.054 220.108 137.054C220.985 137.054 221.703 137.329 222.262 137.879C222.82 138.424 223.099 139.274 223.099 140.429V147H221.591V140.429C221.591 139.705 221.392 139.187 220.996 138.876C220.6 138.565 220.133 138.409 219.596 138.409C218.906 138.409 218.371 138.618 217.992 139.036C217.613 139.449 217.423 139.973 217.423 140.608V147H215.889V140.276C215.889 139.717 215.708 139.268 215.346 138.927C214.983 138.582 214.517 138.409 213.946 138.409C213.554 138.409 213.187 138.513 212.846 138.722C212.51 138.931 212.237 139.221 212.028 139.592C211.824 139.958 211.721 140.382 211.721 140.864V147H210.213ZM225.857 150.682V137.182H227.315V138.741H227.494C227.604 138.571 227.758 138.354 227.954 138.089C228.154 137.821 228.44 137.582 228.81 137.374C229.185 137.161 229.692 137.054 230.332 137.054C231.158 137.054 231.887 137.261 232.518 137.674C233.148 138.087 233.641 138.673 233.994 139.432C234.348 140.19 234.525 141.085 234.525 142.116C234.525 143.156 234.348 144.058 233.994 144.82C233.641 145.579 233.151 146.167 232.524 146.585C231.898 146.998 231.175 147.205 230.357 147.205C229.727 147.205 229.222 147.1 228.842 146.891C228.463 146.678 228.171 146.437 227.967 146.169C227.762 145.896 227.604 145.67 227.494 145.491H227.366V150.682H225.857ZM227.34 142.091C227.34 142.832 227.449 143.487 227.666 144.053C227.884 144.616 228.201 145.057 228.619 145.376C229.036 145.692 229.548 145.849 230.153 145.849C230.783 145.849 231.31 145.683 231.732 145.351C232.158 145.014 232.477 144.562 232.69 143.996C232.908 143.425 233.016 142.79 233.016 142.091C233.016 141.401 232.91 140.778 232.697 140.224C232.488 139.666 232.17 139.225 231.744 138.901C231.322 138.573 230.792 138.409 230.153 138.409C229.539 138.409 229.023 138.565 228.606 138.876C228.188 139.183 227.873 139.613 227.66 140.167C227.447 140.717 227.34 141.358 227.34 142.091ZM239.715 147.23C239.093 147.23 238.528 147.113 238.021 146.879C237.514 146.64 237.112 146.297 236.813 145.849C236.515 145.398 236.366 144.852 236.366 144.213C236.366 143.651 236.477 143.195 236.698 142.845C236.92 142.491 237.216 142.214 237.587 142.014C237.957 141.814 238.366 141.665 238.814 141.567C239.266 141.464 239.719 141.384 240.175 141.324C240.772 141.247 241.256 141.19 241.626 141.151C242.001 141.109 242.274 141.038 242.445 140.94C242.619 140.842 242.707 140.672 242.707 140.429V140.378C242.707 139.747 242.534 139.257 242.189 138.908C241.848 138.558 241.33 138.384 240.636 138.384C239.915 138.384 239.351 138.541 238.942 138.857C238.533 139.172 238.245 139.509 238.079 139.866L236.647 139.355C236.903 138.759 237.244 138.294 237.67 137.962C238.1 137.625 238.569 137.391 239.076 137.259C239.587 137.122 240.09 137.054 240.585 137.054C240.9 137.054 241.262 137.092 241.671 137.169C242.085 137.241 242.483 137.393 242.866 137.623C243.254 137.853 243.576 138.2 243.832 138.665C244.087 139.129 244.215 139.751 244.215 140.531V147H242.707V145.67H242.63C242.528 145.884 242.357 146.112 242.119 146.354C241.88 146.597 241.563 146.804 241.166 146.974C240.77 147.145 240.286 147.23 239.715 147.23ZM239.945 145.875C240.542 145.875 241.045 145.758 241.454 145.523C241.867 145.289 242.178 144.987 242.387 144.616C242.6 144.245 242.707 143.855 242.707 143.446V142.065C242.643 142.142 242.502 142.212 242.285 142.276C242.072 142.336 241.825 142.389 241.543 142.436C241.266 142.479 240.996 142.517 240.732 142.551C240.472 142.581 240.261 142.607 240.099 142.628C239.707 142.679 239.34 142.762 238.999 142.877C238.663 142.988 238.39 143.156 238.181 143.382C237.977 143.604 237.874 143.906 237.874 144.29C237.874 144.814 238.068 145.21 238.456 145.479C238.848 145.743 239.344 145.875 239.945 145.875ZM248.477 141.094V147H246.969V137.182H248.426V138.716H248.554C248.784 138.217 249.133 137.817 249.602 137.514C250.071 137.207 250.676 137.054 251.417 137.054C252.082 137.054 252.664 137.19 253.162 137.463C253.661 137.732 254.049 138.141 254.326 138.69C254.603 139.236 254.741 139.926 254.741 140.761V147H253.233V140.864C253.233 140.092 253.032 139.491 252.632 139.061C252.231 138.626 251.682 138.409 250.983 138.409C250.501 138.409 250.071 138.513 249.692 138.722C249.317 138.931 249.02 139.236 248.803 139.636C248.586 140.037 248.477 140.523 248.477 141.094ZM258.118 150.682C257.862 150.682 257.634 150.661 257.434 150.618C257.234 150.58 257.095 150.541 257.018 150.503L257.402 149.173C257.768 149.267 258.092 149.301 258.374 149.276C258.655 149.25 258.904 149.124 259.121 148.898C259.343 148.677 259.545 148.317 259.729 147.818L260.01 147.051L256.379 137.182H258.016L260.726 145.006H260.828L263.538 137.182H265.175L261.007 148.432C260.82 148.939 260.587 149.359 260.31 149.691C260.033 150.028 259.712 150.277 259.345 150.439C258.983 150.601 258.574 150.682 258.118 150.682ZM272.228 150.682V137.182H273.686V138.741H273.865C273.975 138.571 274.129 138.354 274.325 138.089C274.525 137.821 274.811 137.582 275.181 137.374C275.556 137.161 276.064 137.054 276.703 137.054C277.529 137.054 278.258 137.261 278.889 137.674C279.52 138.087 280.012 138.673 280.365 139.432C280.719 140.19 280.896 141.085 280.896 142.116C280.896 143.156 280.719 144.058 280.365 144.82C280.012 145.579 279.522 146.167 278.895 146.585C278.269 146.998 277.547 147.205 276.728 147.205C276.098 147.205 275.593 147.1 275.213 146.891C274.834 146.678 274.542 146.437 274.338 146.169C274.133 145.896 273.975 145.67 273.865 145.491H273.737V150.682H272.228ZM273.711 142.091C273.711 142.832 273.82 143.487 274.037 144.053C274.255 144.616 274.572 145.057 274.99 145.376C275.407 145.692 275.919 145.849 276.524 145.849C277.154 145.849 277.681 145.683 278.103 145.351C278.529 145.014 278.848 144.562 279.061 143.996C279.279 143.425 279.387 142.79 279.387 142.091C279.387 141.401 279.281 140.778 279.068 140.224C278.859 139.666 278.542 139.225 278.115 138.901C277.694 138.573 277.163 138.409 276.524 138.409C275.91 138.409 275.395 138.565 274.977 138.876C274.559 139.183 274.244 139.613 274.031 140.167C273.818 140.717 273.711 141.358 273.711 142.091ZM286.086 147.23C285.464 147.23 284.9 147.113 284.392 146.879C283.885 146.64 283.483 146.297 283.184 145.849C282.886 145.398 282.737 144.852 282.737 144.213C282.737 143.651 282.848 143.195 283.069 142.845C283.291 142.491 283.587 142.214 283.958 142.014C284.328 141.814 284.738 141.665 285.185 141.567C285.637 141.464 286.091 141.384 286.547 141.324C287.143 141.247 287.627 141.19 287.998 141.151C288.373 141.109 288.645 141.038 288.816 140.94C288.99 140.842 289.078 140.672 289.078 140.429V140.378C289.078 139.747 288.905 139.257 288.56 138.908C288.219 138.558 287.701 138.384 287.007 138.384C286.287 138.384 285.722 138.541 285.313 138.857C284.904 139.172 284.616 139.509 284.45 139.866L283.018 139.355C283.274 138.759 283.615 138.294 284.041 137.962C284.471 137.625 284.94 137.391 285.447 137.259C285.958 137.122 286.461 137.054 286.956 137.054C287.271 137.054 287.633 137.092 288.042 137.169C288.456 137.241 288.854 137.393 289.238 137.623C289.625 137.853 289.947 138.2 290.203 138.665C290.458 139.129 290.586 139.751 290.586 140.531V147H289.078V145.67H289.001C288.899 145.884 288.728 146.112 288.49 146.354C288.251 146.597 287.934 146.804 287.537 146.974C287.141 147.145 286.657 147.23 286.086 147.23ZM286.316 145.875C286.913 145.875 287.416 145.758 287.825 145.523C288.238 145.289 288.549 144.987 288.758 144.616C288.971 144.245 289.078 143.855 289.078 143.446V142.065C289.014 142.142 288.873 142.212 288.656 142.276C288.443 142.336 288.196 142.389 287.914 142.436C287.637 142.479 287.367 142.517 287.103 142.551C286.843 142.581 286.632 142.607 286.47 142.628C286.078 142.679 285.711 142.762 285.37 142.877C285.034 142.988 284.761 143.156 284.552 143.382C284.348 143.604 284.245 143.906 284.245 144.29C284.245 144.814 284.439 145.21 284.827 145.479C285.219 145.743 285.716 145.875 286.316 145.875ZM297.303 150.886C296.574 150.886 295.948 150.793 295.423 150.605C294.899 150.422 294.463 150.179 294.113 149.876C293.768 149.578 293.493 149.259 293.289 148.918L294.49 148.074C294.627 148.253 294.799 148.457 295.008 148.688C295.217 148.922 295.502 149.124 295.865 149.295C296.231 149.469 296.71 149.557 297.303 149.557C298.095 149.557 298.749 149.365 299.265 148.982C299.781 148.598 300.039 147.997 300.039 147.179V145.185H299.911C299.8 145.364 299.642 145.585 299.438 145.849C299.237 146.109 298.948 146.342 298.568 146.546C298.193 146.746 297.686 146.847 297.047 146.847C296.254 146.847 295.543 146.659 294.912 146.284C294.286 145.909 293.789 145.364 293.423 144.648C293.061 143.932 292.879 143.062 292.879 142.04C292.879 141.034 293.056 140.158 293.41 139.413C293.764 138.663 294.256 138.083 294.887 137.674C295.517 137.261 296.246 137.054 297.073 137.054C297.712 137.054 298.219 137.161 298.594 137.374C298.973 137.582 299.263 137.821 299.463 138.089C299.668 138.354 299.825 138.571 299.936 138.741H300.09V137.182H301.547V147.281C301.547 148.125 301.355 148.811 300.972 149.339C300.593 149.872 300.081 150.262 299.438 150.509C298.798 150.761 298.087 150.886 297.303 150.886ZM297.252 145.491C297.857 145.491 298.368 145.353 298.786 145.076C299.203 144.799 299.521 144.401 299.738 143.881C299.955 143.361 300.064 142.739 300.064 142.014C300.064 141.307 299.958 140.683 299.744 140.141C299.531 139.6 299.216 139.176 298.798 138.869C298.381 138.562 297.865 138.409 297.252 138.409C296.612 138.409 296.08 138.571 295.654 138.895C295.232 139.219 294.914 139.653 294.701 140.199C294.492 140.744 294.388 141.349 294.388 142.014C294.388 142.696 294.494 143.299 294.708 143.823C294.925 144.343 295.244 144.752 295.666 145.05C296.093 145.344 296.621 145.491 297.252 145.491ZM308.425 147.205C307.479 147.205 306.663 146.996 305.977 146.578C305.295 146.156 304.769 145.568 304.398 144.814C304.031 144.055 303.848 143.173 303.848 142.168C303.848 141.162 304.031 140.276 304.398 139.509C304.769 138.737 305.284 138.136 305.945 137.706C306.61 137.271 307.385 137.054 308.271 137.054C308.783 137.054 309.288 137.139 309.786 137.31C310.285 137.48 310.739 137.757 311.148 138.141C311.557 138.52 311.883 139.023 312.126 139.649C312.369 140.276 312.49 141.047 312.49 141.963V142.602H304.922V141.298H310.956C310.956 140.744 310.845 140.25 310.624 139.815C310.406 139.381 310.095 139.038 309.691 138.786C309.29 138.535 308.817 138.409 308.271 138.409C307.671 138.409 307.151 138.558 306.712 138.857C306.277 139.151 305.943 139.534 305.708 140.007C305.474 140.48 305.357 140.987 305.357 141.528V142.398C305.357 143.139 305.485 143.768 305.74 144.283C306 144.795 306.36 145.185 306.82 145.453C307.281 145.717 307.816 145.849 308.425 145.849C308.821 145.849 309.179 145.794 309.499 145.683C309.823 145.568 310.102 145.398 310.336 145.172C310.57 144.942 310.752 144.656 310.879 144.315L312.337 144.724C312.183 145.219 311.926 145.653 311.563 146.028C311.201 146.399 310.754 146.689 310.221 146.898C309.688 147.102 309.09 147.205 308.425 147.205ZM315.884 147.102C315.569 147.102 315.298 146.989 315.073 146.763C314.847 146.538 314.734 146.267 314.734 145.952C314.734 145.636 314.847 145.366 315.073 145.14C315.298 144.914 315.569 144.801 315.884 144.801C316.2 144.801 316.47 144.914 316.696 145.14C316.922 145.366 317.035 145.636 317.035 145.952C317.035 146.161 316.982 146.352 316.875 146.527C316.773 146.702 316.634 146.842 316.46 146.949C316.289 147.051 316.097 147.102 315.884 147.102Z" fill="#111827"/>
<g clip-path="url(#clip4_2647_2115)">
<path d="M71.1378 199V185.909H73.9055V191.681H74.0781L78.7891 185.909H82.1065L77.2486 191.771L82.1641 199H78.853L75.267 193.618L73.9055 195.28V199H71.1378ZM83.4968 199V189.182H86.1367V190.895H86.239C86.418 190.286 86.7184 189.825 87.1403 189.514C87.5621 189.199 88.0479 189.041 88.5977 189.041C88.734 189.041 88.881 189.05 89.0387 189.067C89.1964 189.084 89.3349 189.107 89.4542 189.137V191.553C89.3263 191.515 89.1495 191.481 88.9237 191.451C88.6978 191.421 88.4911 191.406 88.3036 191.406C87.9031 191.406 87.5451 191.494 87.2298 191.668C86.9187 191.839 86.6715 192.077 86.4883 192.384C86.3093 192.691 86.2198 193.045 86.2198 193.445V199H83.4968ZM90.862 199V189.182H93.585V199H90.862ZM92.2299 187.916C91.8251 187.916 91.4778 187.782 91.188 187.513C90.9025 187.241 90.7598 186.915 90.7598 186.536C90.7598 186.161 90.9025 185.839 91.188 185.57C91.4778 185.298 91.8251 185.161 92.2299 185.161C92.6348 185.161 92.9799 185.298 93.2654 185.57C93.5552 185.839 93.7001 186.161 93.7001 186.536C93.7001 186.915 93.5552 187.241 93.2654 187.513C92.9799 187.782 92.6348 187.916 92.2299 187.916ZM103.935 191.982L101.442 192.135C101.4 191.922 101.308 191.73 101.168 191.56C101.027 191.385 100.842 191.246 100.612 191.144C100.386 191.038 100.115 190.984 99.7997 190.984C99.3778 190.984 99.022 191.074 98.7322 191.253C98.4425 191.428 98.2976 191.662 98.2976 191.956C98.2976 192.19 98.3913 192.388 98.5788 192.55C98.7663 192.712 99.0881 192.842 99.544 192.94L101.321 193.298C102.276 193.494 102.987 193.81 103.456 194.244C103.925 194.679 104.159 195.25 104.159 195.957C104.159 196.601 103.969 197.165 103.59 197.651C103.215 198.137 102.7 198.516 102.043 198.789C101.391 199.058 100.639 199.192 99.7869 199.192C98.4872 199.192 97.4517 198.921 96.6804 198.38C95.9134 197.835 95.4638 197.093 95.3317 196.156L98.0099 196.015C98.0909 196.411 98.2869 196.714 98.598 196.923C98.9091 197.127 99.3075 197.229 99.7933 197.229C100.271 197.229 100.654 197.138 100.944 196.955C101.238 196.767 101.387 196.526 101.391 196.232C101.387 195.985 101.283 195.783 101.078 195.625C100.874 195.463 100.558 195.339 100.132 195.254L98.4318 194.915C97.473 194.724 96.7592 194.391 96.2905 193.918C95.826 193.445 95.5938 192.842 95.5938 192.109C95.5938 191.479 95.7642 190.935 96.1051 190.479C96.4503 190.023 96.9339 189.672 97.5561 189.425C98.1825 189.178 98.9155 189.054 99.755 189.054C100.995 189.054 101.971 189.316 102.683 189.84C103.398 190.364 103.816 191.078 103.935 191.982ZM111.096 189.182V191.227H105.183V189.182H111.096ZM106.526 186.83H109.249V195.983C109.249 196.234 109.287 196.43 109.364 196.571C109.441 196.707 109.547 196.803 109.683 196.859C109.824 196.914 109.986 196.942 110.169 196.942C110.297 196.942 110.425 196.931 110.553 196.91C110.681 196.884 110.779 196.865 110.847 196.852L111.275 198.879C111.139 198.921 110.947 198.97 110.7 199.026C110.453 199.085 110.152 199.121 109.798 199.134C109.142 199.16 108.567 199.072 108.073 198.872C107.583 198.672 107.201 198.361 106.928 197.939C106.656 197.517 106.521 196.984 106.526 196.341V186.83ZM112.87 199V189.182H115.593V199H112.87ZM114.238 187.916C113.833 187.916 113.486 187.782 113.196 187.513C112.91 187.241 112.768 186.915 112.768 186.536C112.768 186.161 112.91 185.839 113.196 185.57C113.486 185.298 113.833 185.161 114.238 185.161C114.643 185.161 114.988 185.298 115.273 185.57C115.563 185.839 115.708 186.161 115.708 186.536C115.708 186.915 115.563 187.241 115.273 187.513C114.988 187.782 114.643 187.916 114.238 187.916ZM120.497 193.324V199H117.774V189.182H120.369V190.914H120.484C120.702 190.343 121.066 189.891 121.577 189.559C122.089 189.222 122.709 189.054 123.438 189.054C124.119 189.054 124.714 189.203 125.221 189.501C125.728 189.8 126.122 190.226 126.403 190.78C126.685 191.33 126.825 191.986 126.825 192.749V199H124.102V193.234C124.107 192.634 123.953 192.165 123.642 191.828C123.331 191.487 122.903 191.317 122.357 191.317C121.991 191.317 121.667 191.396 121.386 191.553C121.109 191.711 120.891 191.941 120.734 192.244C120.58 192.542 120.501 192.902 120.497 193.324ZM136.135 199L132.39 185.909H135.413L137.58 195.005H137.689L140.079 185.909H142.668L145.052 195.024H145.167L147.334 185.909H150.358L146.612 199H143.914L141.422 190.441H141.319L138.833 199H136.135ZM153.533 199.185C152.906 199.185 152.348 199.077 151.858 198.859C151.368 198.638 150.98 198.312 150.695 197.881C150.414 197.447 150.273 196.906 150.273 196.258C150.273 195.712 150.373 195.254 150.573 194.884C150.774 194.513 151.046 194.214 151.392 193.989C151.737 193.763 152.129 193.592 152.568 193.477C153.011 193.362 153.475 193.281 153.961 193.234C154.532 193.175 154.992 193.119 155.342 193.068C155.691 193.013 155.945 192.932 156.102 192.825C156.26 192.719 156.339 192.561 156.339 192.352V192.314C156.339 191.909 156.211 191.596 155.955 191.374C155.704 191.153 155.346 191.042 154.882 191.042C154.392 191.042 154.002 191.151 153.712 191.368C153.422 191.581 153.23 191.849 153.137 192.173L150.618 191.969C150.746 191.372 150.997 190.857 151.372 190.422C151.747 189.983 152.231 189.646 152.823 189.412C153.42 189.173 154.11 189.054 154.894 189.054C155.44 189.054 155.962 189.118 156.46 189.246C156.963 189.374 157.409 189.572 157.796 189.84C158.188 190.109 158.497 190.454 158.723 190.876C158.949 191.293 159.062 191.794 159.062 192.378V199H156.48V197.638H156.403C156.245 197.945 156.034 198.216 155.77 198.45C155.506 198.68 155.188 198.862 154.818 198.994C154.447 199.121 154.019 199.185 153.533 199.185ZM154.313 197.306C154.713 197.306 155.067 197.227 155.374 197.07C155.681 196.908 155.921 196.69 156.096 196.418C156.271 196.145 156.358 195.836 156.358 195.491V194.449C156.273 194.504 156.156 194.555 156.007 194.602C155.862 194.645 155.698 194.685 155.514 194.724C155.331 194.758 155.148 194.79 154.965 194.82C154.781 194.845 154.615 194.869 154.466 194.89C154.146 194.937 153.867 195.011 153.629 195.114C153.39 195.216 153.205 195.354 153.073 195.529C152.941 195.7 152.874 195.913 152.874 196.168C152.874 196.539 153.009 196.822 153.277 197.018C153.55 197.21 153.895 197.306 154.313 197.306ZM166.397 189.182V191.227H160.484V189.182H166.397ZM161.827 186.83H164.55V195.983C164.55 196.234 164.588 196.43 164.665 196.571C164.741 196.707 164.848 196.803 164.984 196.859C165.125 196.914 165.287 196.942 165.47 196.942C165.598 196.942 165.726 196.931 165.854 196.91C165.981 196.884 166.079 196.865 166.148 196.852L166.576 198.879C166.439 198.921 166.248 198.97 166.001 199.026C165.753 199.085 165.453 199.121 165.099 199.134C164.443 199.16 163.868 199.072 163.373 198.872C162.883 198.672 162.502 198.361 162.229 197.939C161.956 197.517 161.822 196.984 161.827 196.341V186.83ZM176.217 191.982L173.724 192.135C173.681 191.922 173.589 191.73 173.449 191.56C173.308 191.385 173.123 191.246 172.893 191.144C172.667 191.038 172.396 190.984 172.081 190.984C171.659 190.984 171.303 191.074 171.013 191.253C170.724 191.428 170.579 191.662 170.579 191.956C170.579 192.19 170.673 192.388 170.86 192.55C171.048 192.712 171.369 192.842 171.825 192.94L173.602 193.298C174.557 193.494 175.268 193.81 175.737 194.244C176.206 194.679 176.44 195.25 176.44 195.957C176.44 196.601 176.251 197.165 175.871 197.651C175.496 198.137 174.981 198.516 174.325 198.789C173.673 199.058 172.92 199.192 172.068 199.192C170.768 199.192 169.733 198.921 168.962 198.38C168.195 197.835 167.745 197.093 167.613 196.156L170.291 196.015C170.372 196.411 170.568 196.714 170.879 196.923C171.19 197.127 171.589 197.229 172.075 197.229C172.552 197.229 172.935 197.138 173.225 196.955C173.519 196.767 173.668 196.526 173.673 196.232C173.668 195.985 173.564 195.783 173.359 195.625C173.155 195.463 172.839 195.339 172.413 195.254L170.713 194.915C169.754 194.724 169.04 194.391 168.572 193.918C168.107 193.445 167.875 192.842 167.875 192.109C167.875 191.479 168.045 190.935 168.386 190.479C168.732 190.023 169.215 189.672 169.837 189.425C170.464 189.178 171.197 189.054 172.036 189.054C173.276 189.054 174.252 189.316 174.964 189.84C175.68 190.364 176.097 191.078 176.217 191.982ZM182.591 199.192C181.598 199.192 180.74 198.981 180.015 198.559C179.295 198.133 178.739 197.54 178.347 196.782C177.955 196.019 177.759 195.135 177.759 194.129C177.759 193.115 177.955 192.229 178.347 191.47C178.739 190.707 179.295 190.115 180.015 189.693C180.74 189.267 181.598 189.054 182.591 189.054C183.584 189.054 184.441 189.267 185.161 189.693C185.885 190.115 186.443 190.707 186.835 191.47C187.227 192.229 187.423 193.115 187.423 194.129C187.423 195.135 187.227 196.019 186.835 196.782C186.443 197.54 185.885 198.133 185.161 198.559C184.441 198.981 183.584 199.192 182.591 199.192ZM182.604 197.082C183.056 197.082 183.433 196.955 183.735 196.699C184.038 196.439 184.266 196.085 184.419 195.638C184.577 195.19 184.656 194.681 184.656 194.11C184.656 193.539 184.577 193.03 184.419 192.582C184.266 192.135 184.038 191.781 183.735 191.521C183.433 191.261 183.056 191.131 182.604 191.131C182.148 191.131 181.764 191.261 181.453 191.521C181.146 191.781 180.914 192.135 180.757 192.582C180.603 193.03 180.526 193.539 180.526 194.11C180.526 194.681 180.603 195.19 180.757 195.638C180.914 196.085 181.146 196.439 181.453 196.699C181.764 196.955 182.148 197.082 182.604 197.082ZM191.917 193.324V199H189.194V189.182H191.789V190.914H191.904C192.122 190.343 192.486 189.891 192.997 189.559C193.509 189.222 194.129 189.054 194.857 189.054C195.539 189.054 196.134 189.203 196.641 189.501C197.148 189.8 197.542 190.226 197.823 190.78C198.105 191.33 198.245 191.986 198.245 192.749V199H195.522V193.234C195.526 192.634 195.373 192.165 195.062 191.828C194.751 191.487 194.323 191.317 193.777 191.317C193.411 191.317 193.087 191.396 192.806 191.553C192.529 191.711 192.311 191.941 192.154 192.244C192 192.542 191.921 192.902 191.917 193.324Z" fill="#111827"/>
<path d="M79.4261 214H78.1932C78.1203 213.645 77.9927 213.334 77.8104 213.065C77.6314 212.797 77.4126 212.571 77.1541 212.389C76.8989 212.204 76.6155 212.064 76.304 211.972C75.9924 211.879 75.6676 211.832 75.3295 211.832C74.7131 211.832 74.1546 211.988 73.6541 212.3C73.157 212.611 72.7609 213.07 72.4659 213.677C72.1742 214.283 72.0284 215.027 72.0284 215.909C72.0284 216.791 72.1742 217.535 72.4659 218.141C72.7609 218.748 73.157 219.207 73.6541 219.518C74.1546 219.83 74.7131 219.986 75.3295 219.986C75.6676 219.986 75.9924 219.939 76.304 219.847C76.6155 219.754 76.8989 219.616 77.1541 219.434C77.4126 219.248 77.6314 219.021 77.8104 218.753C77.9927 218.481 78.1203 218.17 78.1932 217.818H79.4261C79.3333 218.339 79.1643 218.804 78.919 219.215C78.6738 219.626 78.3688 219.976 78.0043 220.264C77.6397 220.549 77.2304 220.766 76.7763 220.915C76.3255 221.065 75.8433 221.139 75.3295 221.139C74.4612 221.139 73.6889 220.927 73.0128 220.503C72.3366 220.079 71.8047 219.475 71.4169 218.693C71.0291 217.911 70.8352 216.983 70.8352 215.909C70.8352 214.835 71.0291 213.907 71.4169 213.125C71.8047 212.343 72.3366 211.74 73.0128 211.315C73.6889 210.891 74.4612 210.679 75.3295 210.679C75.8433 210.679 76.3255 210.754 76.7763 210.903C77.2304 211.052 77.6397 211.271 78.0043 211.559C78.3688 211.844 78.6738 212.192 78.919 212.603C79.1643 213.011 79.3333 213.476 79.4261 214ZM84.3617 221.159C83.6723 221.159 83.0674 220.995 82.5471 220.667C82.03 220.339 81.6257 219.88 81.334 219.29C81.0456 218.7 80.9015 218.01 80.9015 217.222C80.9015 216.426 81.0456 215.732 81.334 215.138C81.6257 214.545 82.03 214.085 82.5471 213.756C83.0674 213.428 83.6723 213.264 84.3617 213.264C85.0511 213.264 85.6543 213.428 86.1713 213.756C86.6917 214.085 87.0961 214.545 87.3844 215.138C87.6761 215.732 87.8219 216.426 87.8219 217.222C87.8219 218.01 87.6761 218.7 87.3844 219.29C87.0961 219.88 86.6917 220.339 86.1713 220.667C85.6543 220.995 85.0511 221.159 84.3617 221.159ZM84.3617 220.105C84.8854 220.105 85.3162 219.971 85.6543 219.702C85.9924 219.434 86.2426 219.081 86.405 218.643C86.5674 218.206 86.6486 217.732 86.6486 217.222C86.6486 216.711 86.5674 216.236 86.405 215.795C86.2426 215.354 85.9924 214.998 85.6543 214.726C85.3162 214.454 84.8854 214.318 84.3617 214.318C83.838 214.318 83.4071 214.454 83.0691 214.726C82.731 214.998 82.4808 215.354 82.3184 215.795C82.156 216.236 82.0748 216.711 82.0748 217.222C82.0748 217.732 82.156 218.206 82.3184 218.643C82.4808 219.081 82.731 219.434 83.0691 219.702C83.4071 219.971 83.838 220.105 84.3617 220.105ZM93.9879 216.088V217.182H89.5334V216.088H93.9879ZM96.2115 221V210.818H102.317V211.912H97.4444V215.352H101.859V216.446H97.4444V221H96.2115ZM106.811 221.159C106.122 221.159 105.517 220.995 104.996 220.667C104.479 220.339 104.075 219.88 103.783 219.29C103.495 218.7 103.351 218.01 103.351 217.222C103.351 216.426 103.495 215.732 103.783 215.138C104.075 214.545 104.479 214.085 104.996 213.756C105.517 213.428 106.122 213.264 106.811 213.264C107.5 213.264 108.104 213.428 108.621 213.756C109.141 214.085 109.545 214.545 109.834 215.138C110.125 215.732 110.271 216.426 110.271 217.222C110.271 218.01 110.125 218.7 109.834 219.29C109.545 219.88 109.141 220.339 108.621 220.667C108.104 220.995 107.5 221.159 106.811 221.159ZM106.811 220.105C107.335 220.105 107.765 219.971 108.104 219.702C108.442 219.434 108.692 219.081 108.854 218.643C109.017 218.206 109.098 217.732 109.098 217.222C109.098 216.711 109.017 216.236 108.854 215.795C108.692 215.354 108.442 214.998 108.104 214.726C107.765 214.454 107.335 214.318 106.811 214.318C106.287 214.318 105.856 214.454 105.518 214.726C105.18 214.998 104.93 215.354 104.768 215.795C104.605 216.236 104.524 216.711 104.524 217.222C104.524 217.732 104.605 218.206 104.768 218.643C104.93 219.081 105.18 219.434 105.518 219.702C105.856 219.971 106.287 220.105 106.811 220.105ZM116.875 217.878V213.364H118.048V221H116.875V219.707H116.795C116.616 220.095 116.338 220.425 115.96 220.697C115.582 220.965 115.105 221.099 114.528 221.099C114.051 221.099 113.627 220.995 113.255 220.786C112.884 220.574 112.592 220.256 112.38 219.832C112.168 219.404 112.062 218.866 112.062 218.216V213.364H113.235V218.136C113.235 218.693 113.391 219.137 113.703 219.469C114.018 219.8 114.419 219.966 114.906 219.966C115.198 219.966 115.494 219.891 115.796 219.742C116.101 219.593 116.356 219.364 116.561 219.056C116.77 218.748 116.875 218.355 116.875 217.878ZM121.37 216.406V221H120.197V213.364H121.33V214.557H121.43C121.609 214.169 121.881 213.857 122.245 213.622C122.61 213.384 123.08 213.264 123.657 213.264C124.174 213.264 124.627 213.37 125.014 213.582C125.402 213.791 125.704 214.109 125.919 214.537C126.135 214.961 126.242 215.498 126.242 216.148V221H125.069V216.227C125.069 215.627 124.913 215.16 124.602 214.825C124.29 214.487 123.863 214.318 123.319 214.318C122.945 214.318 122.61 214.399 122.315 214.562C122.023 214.724 121.793 214.961 121.624 215.273C121.455 215.584 121.37 215.962 121.37 216.406ZM131.27 221.159C130.634 221.159 130.072 220.998 129.585 220.677C129.097 220.352 128.716 219.895 128.441 219.305C128.166 218.711 128.028 218.01 128.028 217.202C128.028 216.4 128.166 215.704 128.441 215.114C128.716 214.524 129.099 214.068 129.589 213.746C130.08 213.425 130.647 213.264 131.29 213.264C131.787 213.264 132.18 213.347 132.468 213.513C132.76 213.675 132.982 213.861 133.134 214.07C133.29 214.275 133.411 214.444 133.497 214.577H133.597V210.818H134.77V221H133.636V219.827H133.497C133.411 219.966 133.288 220.142 133.129 220.354C132.97 220.562 132.743 220.75 132.448 220.915C132.153 221.078 131.76 221.159 131.27 221.159ZM131.429 220.105C131.9 220.105 132.297 219.982 132.622 219.737C132.947 219.489 133.194 219.146 133.363 218.708C133.532 218.267 133.616 217.759 133.616 217.182C133.616 216.612 133.534 216.113 133.368 215.685C133.202 215.254 132.957 214.92 132.632 214.681C132.307 214.439 131.906 214.318 131.429 214.318C130.932 214.318 130.518 214.446 130.186 214.701C129.858 214.953 129.611 215.296 129.445 215.73C129.283 216.161 129.202 216.645 129.202 217.182C129.202 217.725 129.285 218.219 129.45 218.663C129.619 219.104 129.868 219.455 130.196 219.717C130.527 219.976 130.938 220.105 131.429 220.105ZM140.283 221.159C139.548 221.159 138.913 220.997 138.379 220.672C137.849 220.344 137.44 219.886 137.151 219.3C136.866 218.71 136.724 218.024 136.724 217.241C136.724 216.459 136.866 215.77 137.151 215.173C137.44 214.573 137.841 214.106 138.354 213.771C138.871 213.433 139.475 213.264 140.164 213.264C140.562 213.264 140.955 213.33 141.342 213.463C141.73 213.596 142.083 213.811 142.401 214.109C142.719 214.404 142.973 214.795 143.162 215.283C143.351 215.77 143.445 216.37 143.445 217.082V217.58H137.559V216.565H142.252C142.252 216.134 142.166 215.75 141.994 215.412C141.825 215.074 141.583 214.807 141.268 214.612C140.956 214.416 140.588 214.318 140.164 214.318C139.697 214.318 139.292 214.434 138.951 214.666C138.613 214.895 138.353 215.193 138.17 215.561C137.988 215.929 137.897 216.323 137.897 216.744V217.42C137.897 217.997 137.996 218.486 138.195 218.887C138.397 219.285 138.678 219.588 139.036 219.797C139.393 220.002 139.809 220.105 140.283 220.105C140.592 220.105 140.87 220.062 141.119 219.976C141.371 219.886 141.588 219.754 141.77 219.578C141.952 219.399 142.093 219.177 142.192 218.912L143.326 219.23C143.207 219.615 143.006 219.953 142.724 220.244C142.443 220.533 142.095 220.758 141.68 220.92C141.266 221.08 140.8 221.159 140.283 221.159ZM145.23 221V213.364H146.364V214.517H146.443C146.582 214.139 146.834 213.833 147.199 213.597C147.563 213.362 147.974 213.244 148.432 213.244C148.518 213.244 148.626 213.246 148.755 213.249C148.884 213.253 148.982 213.258 149.048 213.264V214.457C149.009 214.447 148.917 214.433 148.775 214.413C148.636 214.389 148.488 214.378 148.332 214.378C147.961 214.378 147.63 214.456 147.338 214.612C147.05 214.764 146.821 214.976 146.652 215.248C146.486 215.516 146.403 215.823 146.403 216.168V221H145.23ZM151.314 219.608L151.235 220.145C151.178 220.523 151.092 220.927 150.976 221.358C150.863 221.789 150.746 222.195 150.623 222.576C150.5 222.957 150.399 223.26 150.32 223.486H149.425C149.468 223.274 149.524 222.994 149.594 222.646C149.664 222.298 149.733 221.908 149.803 221.477C149.876 221.05 149.935 220.612 149.982 220.165L150.041 219.608H151.314ZM163.153 213.364C163.093 212.86 162.851 212.469 162.427 212.19C162.003 211.912 161.482 211.773 160.866 211.773C160.415 211.773 160.021 211.846 159.683 211.991C159.348 212.137 159.086 212.338 158.897 212.593C158.711 212.848 158.619 213.138 158.619 213.463C158.619 213.735 158.683 213.969 158.812 214.164C158.945 214.356 159.114 214.517 159.32 214.646C159.525 214.772 159.741 214.877 159.966 214.96C160.191 215.039 160.398 215.104 160.587 215.153L161.621 215.432C161.887 215.501 162.182 215.598 162.506 215.72C162.835 215.843 163.148 216.01 163.446 216.222C163.748 216.431 163.996 216.7 164.192 217.028C164.387 217.356 164.485 217.759 164.485 218.236C164.485 218.786 164.341 219.283 164.053 219.727C163.768 220.171 163.35 220.524 162.8 220.786C162.253 221.048 161.588 221.179 160.806 221.179C160.077 221.179 159.446 221.061 158.912 220.826C158.382 220.591 157.964 220.263 157.659 219.842C157.357 219.421 157.187 218.932 157.147 218.375H158.42C158.453 218.759 158.582 219.078 158.808 219.33C159.036 219.578 159.325 219.764 159.673 219.886C160.024 220.006 160.402 220.065 160.806 220.065C161.277 220.065 161.699 219.989 162.074 219.837C162.448 219.681 162.745 219.465 162.964 219.19C163.183 218.912 163.292 218.587 163.292 218.216C163.292 217.878 163.197 217.603 163.009 217.391C162.82 217.179 162.571 217.006 162.263 216.874C161.955 216.741 161.621 216.625 161.263 216.526L160.011 216.168C159.215 215.939 158.585 215.612 158.121 215.188C157.657 214.764 157.425 214.209 157.425 213.523C157.425 212.953 157.58 212.455 157.888 212.031C158.199 211.604 158.617 211.272 159.141 211.037C159.668 210.798 160.256 210.679 160.906 210.679C161.562 210.679 162.145 210.797 162.656 211.032C163.166 211.264 163.57 211.582 163.869 211.987C164.17 212.391 164.329 212.85 164.346 213.364H163.153ZM169.674 213.364V214.358H165.717V213.364H169.674ZM166.87 211.534H168.044V218.812C168.044 219.144 168.092 219.393 168.188 219.558C168.287 219.721 168.413 219.83 168.566 219.886C168.721 219.939 168.885 219.966 169.058 219.966C169.187 219.966 169.293 219.959 169.376 219.946C169.459 219.929 169.525 219.916 169.575 219.906L169.813 220.96C169.734 220.99 169.623 221.02 169.48 221.05C169.338 221.083 169.157 221.099 168.938 221.099C168.607 221.099 168.282 221.028 167.964 220.886C167.649 220.743 167.387 220.526 167.178 220.234C166.973 219.943 166.87 219.575 166.87 219.131V211.534ZM171.439 221V213.364H172.573V214.517H172.652C172.791 214.139 173.043 213.833 173.408 213.597C173.772 213.362 174.183 213.244 174.641 213.244C174.727 213.244 174.835 213.246 174.964 213.249C175.093 213.253 175.191 213.258 175.257 213.264V214.457C175.218 214.447 175.126 214.433 174.984 214.413C174.845 214.389 174.697 214.378 174.541 214.378C174.17 214.378 173.839 214.456 173.547 214.612C173.259 214.764 173.03 214.976 172.861 215.248C172.695 215.516 172.612 215.823 172.612 216.168V221H171.439ZM178.895 221.179C178.411 221.179 177.972 221.088 177.578 220.906C177.183 220.72 176.87 220.453 176.638 220.105C176.406 219.754 176.29 219.33 176.29 218.832C176.29 218.395 176.376 218.04 176.549 217.768C176.721 217.493 176.951 217.278 177.24 217.122C177.528 216.966 177.846 216.85 178.194 216.774C178.546 216.695 178.899 216.632 179.253 216.585C179.717 216.526 180.093 216.481 180.382 216.451C180.673 216.418 180.886 216.363 181.018 216.287C181.154 216.211 181.222 216.078 181.222 215.889V215.849C181.222 215.359 181.088 214.978 180.819 214.706C180.554 214.434 180.151 214.298 179.611 214.298C179.051 214.298 178.612 214.421 178.294 214.666C177.975 214.911 177.752 215.173 177.623 215.452L176.509 215.054C176.708 214.59 176.973 214.229 177.304 213.97C177.639 213.708 178.004 213.526 178.398 213.423C178.796 213.317 179.187 213.264 179.571 213.264C179.817 213.264 180.098 213.294 180.417 213.354C180.738 213.41 181.048 213.528 181.346 213.707C181.648 213.886 181.898 214.156 182.097 214.517C182.296 214.878 182.395 215.362 182.395 215.969V221H181.222V219.966H181.162C181.083 220.132 180.95 220.309 180.765 220.498C180.579 220.687 180.332 220.848 180.024 220.98C179.716 221.113 179.339 221.179 178.895 221.179ZM179.074 220.125C179.538 220.125 179.929 220.034 180.248 219.852C180.569 219.669 180.811 219.434 180.973 219.146C181.139 218.857 181.222 218.554 181.222 218.236V217.162C181.172 217.222 181.063 217.276 180.894 217.326C180.728 217.372 180.536 217.414 180.317 217.45C180.102 217.483 179.891 217.513 179.686 217.54C179.484 217.563 179.319 217.583 179.194 217.599C178.889 217.639 178.604 217.704 178.338 217.793C178.077 217.879 177.864 218.01 177.702 218.186C177.543 218.358 177.463 218.594 177.463 218.892C177.463 219.3 177.614 219.608 177.916 219.817C178.221 220.022 178.607 220.125 179.074 220.125ZM184.537 223.864V213.364H185.67V214.577H185.809C185.896 214.444 186.015 214.275 186.167 214.07C186.323 213.861 186.545 213.675 186.834 213.513C187.125 213.347 187.52 213.264 188.017 213.264C188.66 213.264 189.227 213.425 189.717 213.746C190.208 214.068 190.59 214.524 190.866 215.114C191.141 215.704 191.278 216.4 191.278 217.202C191.278 218.01 191.141 218.711 190.866 219.305C190.59 219.895 190.209 220.352 189.722 220.677C189.235 220.998 188.673 221.159 188.037 221.159C187.546 221.159 187.153 221.078 186.858 220.915C186.564 220.75 186.336 220.562 186.177 220.354C186.018 220.142 185.896 219.966 185.809 219.827H185.71V223.864H184.537ZM185.69 217.182C185.69 217.759 185.775 218.267 185.944 218.708C186.113 219.146 186.36 219.489 186.684 219.737C187.009 219.982 187.407 220.105 187.878 220.105C188.368 220.105 188.778 219.976 189.106 219.717C189.437 219.455 189.686 219.104 189.851 218.663C190.02 218.219 190.105 217.725 190.105 217.182C190.105 216.645 190.022 216.161 189.856 215.73C189.694 215.296 189.447 214.953 189.116 214.701C188.787 214.446 188.375 214.318 187.878 214.318C187.4 214.318 186.999 214.439 186.675 214.681C186.35 214.92 186.104 215.254 185.939 215.685C185.773 216.113 185.69 216.612 185.69 217.182ZM193.068 221V213.364H194.241V221H193.068ZM193.665 212.091C193.436 212.091 193.239 212.013 193.073 211.857C192.911 211.701 192.829 211.514 192.829 211.295C192.829 211.077 192.911 210.889 193.073 210.734C193.239 210.578 193.436 210.5 193.665 210.5C193.893 210.5 194.089 210.578 194.251 210.734C194.417 210.889 194.5 211.077 194.5 211.295C194.5 211.514 194.417 211.701 194.251 211.857C194.089 212.013 193.893 212.091 193.665 212.091Z" fill="#6B7280"/>
</g>
</g>
</g>
</g>
<defs>
<filter id="filter0_dd_2647_2115" x="0" y="0" width="396" height="268" filterUnits="userSpaceOnUse" color-interpolation-filters="sRGB">
<feFlood flood-opacity="0" result="BackgroundImageFix"/>
<feColorMatrix in="SourceAlpha" type="matrix" values="0 0 0 0 0 0 0 0 0 0 0 0 0 0 0 0 0 0 127 0" result="hardAlpha"/>
<feMorphology radius="2" operator="erode" in="SourceAlpha" result="effect1_dropShadow_2647_2115"/>
<feOffset dy="2"/>
<feGaussianBlur stdDeviation="2"/>
<feColorMatrix type="matrix" values="0 0 0 0 0.0666667 0 0 0 0 0.0941176 0 0 0 0 0.152941 0 0 0 0.06 0"/>
<feBlend mode="normal" in2="BackgroundImageFix" result="effect1_dropShadow_2647_2115"/>
<feColorMatrix in="SourceAlpha" type="matrix" values="0 0 0 0 0 0 0 0 0 0 0 0 0 0 0 0 0 0 127 0" result="hardAlpha"/>
<feMorphology radius="2" operator="erode" in="SourceAlpha" result="effect2_dropShadow_2647_2115"/>
<feOffset dy="4"/>
<feGaussianBlur stdDeviation="4"/>
<feColorMatrix type="matrix" values="0 0 0 0 0.0666667 0 0 0 0 0.0941176 0 0 0 0 0.152941 0 0 0 0.1 0"/>
<feBlend mode="normal" in2="effect1_dropShadow_2647_2115" result="effect2_dropShadow_2647_2115"/>
<feBlend mode="normal" in="SourceGraphic" in2="effect2_dropShadow_2647_2115" result="shape"/>
</filter>
<clipPath id="clip0_2647_2115">
<rect width="112" height="32" fill="white" transform="translate(38 34)"/>
</clipPath>
<clipPath id="clip1_2647_2115">
<rect width="320" height="128" fill="white" transform="translate(38 98)"/>
</clipPath>
<clipPath id="clip2_2647_2115">
<rect width="16" height="13" fill="white" transform="translate(38 98)"/>
</clipPath>
<clipPath id="clip3_2647_2115">
<rect width="288" height="128" fill="white" transform="translate(70 98)"/>
</clipPath>
<clipPath id="clip4_2647_2115">
<rect width="288" height="48" fill="white" transform="translate(70 178)"/>
</clipPath>
</defs>
</svg>
