<svg width="33" height="32" viewBox="0 0 33 32" fill="none" xmlns="http://www.w3.org/2000/svg">
<path d="M7.16658 1.33331H3.16659C2.81296 1.33331 2.47382 1.47379 2.22378 1.72384C1.97373 1.97388 1.83325 2.31302 1.83325 2.66665V29.3333C1.83325 29.6869 1.97373 30.0261 2.22378 30.2761C2.47382 30.5262 2.81296 30.6666 3.16659 30.6666H7.16658V1.33331Z" fill="#C4B5FD"/>
<path d="M9.83325 30.6666H23.1666V1.33331H9.83325V30.6666ZM16.4999 25.3333C16.1463 25.3333 15.8072 25.1928 15.5571 24.9428C15.3071 24.6927 15.1666 24.3536 15.1666 24C15.1666 23.6464 15.3071 23.3072 15.5571 23.0572C15.8072 22.8071 16.1463 22.6666 16.4999 22.6666C16.8535 22.6666 17.1927 22.8071 17.4427 23.0572C17.6928 23.3072 17.8333 23.6464 17.8333 24C17.8333 24.3536 17.6928 24.6927 17.4427 24.9428C17.1927 25.1928 16.8535 25.3333 16.4999 25.3333ZM16.4999 6.66665C16.8535 6.66665 17.1927 6.80712 17.4427 7.05717C17.6928 7.30722 17.8333 7.64636 17.8333 7.99998C17.8333 8.3536 17.6928 8.69274 17.4427 8.94279C17.1927 9.19284 16.8535 9.33331 16.4999 9.33331C16.1463 9.33331 15.8072 9.19284 15.5571 8.94279C15.3071 8.69274 15.1666 8.3536 15.1666 7.99998C15.1666 7.64636 15.3071 7.30722 15.5571 7.05717C15.8072 6.80712 16.1463 6.66665 16.4999 6.66665ZM16.4999 14.6666C16.8535 14.6666 17.1927 14.8071 17.4427 15.0572C17.6928 15.3072 17.8333 15.6464 17.8333 16C17.8333 16.3536 17.6928 16.6927 17.4427 16.9428C17.1927 17.1928 16.8535 17.3333 16.4999 17.3333C16.1463 17.3333 15.8072 17.1928 15.5571 16.9428C15.3071 16.6927 15.1666 16.3536 15.1666 16C15.1666 15.6464 15.3071 15.3072 15.5571 15.0572C15.8072 14.8071 16.1463 14.6666 16.4999 14.6666Z" fill="#7C3AED"/>
<path d="M29.8333 1.33331H25.8333V30.6666H29.8333C30.1869 30.6666 30.526 30.5262 30.7761 30.2761C31.0261 30.0261 31.1666 29.6869 31.1666 29.3333V2.66665C31.1666 2.31302 31.0261 1.97388 30.7761 1.72384C30.526 1.47379 30.1869 1.33331 29.8333 1.33331Z" fill="#1DB5BE"/>
</svg>
