<svg width="33" height="32" viewBox="0 0 33 32" fill="none" xmlns="http://www.w3.org/2000/svg">
<g clip-path="url(#clip0_2521_2591)">
<path d="M15.7081 0.175992L1.2814 6.91599C1.18384 6.96073 1.10119 7.03256 1.0433 7.12294C0.9854 7.21331 0.954694 7.31842 0.954834 7.42575C0.954975 7.53308 0.985955 7.63811 1.04409 7.72833C1.10222 7.81856 1.18506 7.89017 1.28274 7.93466L15.8227 14.6253C16.2521 14.8227 16.7481 14.8227 17.1774 14.6253L31.7174 7.93466C31.8151 7.8903 31.8981 7.81879 31.9563 7.72865C32.0146 7.6385 32.0457 7.53351 32.046 7.42618C32.0463 7.31885 32.0157 7.2137 31.9579 7.12325C31.9001 7.0328 31.8176 6.96086 31.7201 6.91599L17.2921 0.175992C17.0441 0.0601174 16.7738 6.10352e-05 16.5001 6.10352e-05C16.2264 6.10352e-05 15.956 0.0601174 15.7081 0.175992Z" fill="#7C3AED"/>
<path opacity="0.64" d="M31.72 15.568L28.74 14.176C28.5266 14.0763 28.294 14.0243 28.0584 14.0236C27.8229 14.0229 27.59 14.0735 27.376 14.172L17.1773 18.8653C16.9649 18.963 16.7338 19.0136 16.5 19.0136C16.2662 19.0136 16.0351 18.963 15.8227 18.8653L5.62267 14.172C5.40885 14.0737 5.17621 14.0232 4.9409 14.0239C4.70559 14.0246 4.47324 14.0765 4.26001 14.176L1.28001 15.568C1.1825 15.6128 1.09995 15.6848 1.04217 15.7752C0.98439 15.8657 0.953823 15.9708 0.954103 16.0782C0.954384 16.1855 0.985502 16.2905 1.04375 16.3806C1.10201 16.4708 1.18494 16.5423 1.28267 16.5866L15.8227 23.276C16.035 23.3742 16.2661 23.4251 16.5 23.4251C16.7339 23.4251 16.965 23.3742 17.1773 23.276L31.7173 16.5866C31.8151 16.5423 31.898 16.4708 31.9563 16.3806C32.0145 16.2905 32.0456 16.1855 32.0459 16.0782C32.0462 15.9708 32.0156 15.8657 31.9578 15.7752C31.9001 15.6848 31.8175 15.6128 31.72 15.568Z" fill="#C4B5FD"/>
<path d="M31.72 24.144L28.74 22.752C28.5266 22.6522 28.294 22.6002 28.0585 22.5995C27.8229 22.5989 27.59 22.6495 27.376 22.748L17.1774 27.44C16.9649 27.5376 16.7338 27.5882 16.5 27.5882C16.2662 27.5882 16.0351 27.5376 15.8227 27.44L5.62269 22.7466C5.40887 22.6484 5.17623 22.5978 4.94091 22.5985C4.7056 22.5992 4.47326 22.6511 4.26002 22.7506L1.28002 24.144C1.18289 24.189 1.10071 24.2609 1.0432 24.3512C0.985701 24.4415 0.955288 24.5464 0.955568 24.6535C0.955849 24.7605 0.986813 24.8653 1.04479 24.9553C1.10277 25.0453 1.18532 25.1168 1.28269 25.1613L15.8227 31.852C16.252 32.0493 16.748 32.0493 17.1774 31.852L31.7174 25.1613C31.8147 25.1168 31.8973 25.0453 31.9553 24.9553C32.0132 24.8653 32.0442 24.7605 32.0445 24.6535C32.0448 24.5464 32.0143 24.4415 31.9568 24.3512C31.8993 24.2609 31.8172 24.189 31.72 24.144Z" fill="#1DB5BE"/>
</g>
<defs>
<clipPath id="clip0_2521_2591">
<rect width="32" height="32" fill="white" transform="translate(0.5)"/>
</clipPath>
</defs>
</svg>
